<svg width="1058" height="225" viewBox="0 0 1058 225" fill="none" xmlns="http://www.w3.org/2000/svg">
<g clip-path="url(#clip0_682_88)">
<rect width="1058" height="225" fill="white"/>
<path d="M206.789 39.9889C205.949 42.8089 204.248 45.2689 201.948 47.0389C202.118 50.1389 201.558 53.2789 200.268 56.1789C197.888 61.5189 193.279 65.5389 187.659 67.1689C182.049 68.7989 176.008 67.8689 171.138 64.6389C170.038 63.8989 169.019 63.0689 168.089 62.1189C165.749 65.4389 162.189 67.8289 158.059 68.6489C154.099 69.4289 150.088 68.6989 146.728 66.7189C143.528 75.0589 136.409 81.4089 127.559 83.5389C118.639 85.6989 109.329 83.229 102.659 77.159C95.2885 80.199 86.9885 80.5589 79.2685 78.0089C72.8585 75.8989 67.3085 71.9489 63.2485 66.7589C60.2985 68.9289 56.6085 69.9689 52.8585 69.5789C48.9385 69.1689 45.4085 67.2389 42.9685 64.3189C41.2885 68.1689 38.2185 71.299 34.3085 73.049C30.0385 74.969 25.1885 75.0289 20.9185 73.2689C17.2885 77.2389 12.3085 79.8289 6.8385 80.4289C0.858501 81.0889 -5.0815 79.3289 -9.6915 75.6189C-16.2315 80.999 -25.4215 82.2789 -33.3215 78.5689C-39.6115 75.6289 -43.9815 70.0389 -45.5415 63.6089C-50.6915 66.1589 -57.0615 65.6489 -61.8115 61.7889C-65.8615 58.4989 -67.7715 53.5489 -67.3315 48.7089C-68.9215 47.5189 -70.2115 45.9089 -71.0115 43.9889C-71.7215 42.2889 -72.0015 40.4989 -71.8715 38.7389C-66.1715 50.3089 -53.6215 56.6289 -41.1315 54.5889C-39.4115 58.9389 -36.0215 62.4689 -31.6615 64.3689C-27.9815 65.9689 -23.9215 66.2689 -20.1115 65.2889C-14.7315 70.4689 -6.79151 72.1989 0.35849 69.5589C6.16849 67.3989 10.4885 62.6989 12.2685 57.0189C16.8385 59.9289 22.3485 61.1489 27.8085 60.3389C33.3385 59.5189 38.3185 56.7089 41.8385 52.4989C44.9485 56.5689 50.1085 58.7089 55.3285 57.8789C59.3585 57.2389 62.8085 54.919 64.9385 51.659C71.8185 59.559 82.5585 63.1489 92.9385 60.7889C101.639 58.8089 108.748 52.9589 112.458 45.1789C115.448 48.4889 119.698 50.5489 124.328 50.6889C129.228 50.8389 133.839 48.8389 137.069 45.3689C141.229 50.1189 147.559 52.5489 153.969 51.6289C158.349 51.0089 162.258 48.8889 165.138 45.7889C167.418 48.1789 170.389 49.8389 173.689 50.5189C178.329 51.4689 183.138 50.3689 186.898 47.5089C190.668 44.6389 193.008 40.2889 193.328 35.5789C193.648 30.8589 191.918 26.2389 188.578 22.8889C191.298 21.8789 194.278 21.7489 197.118 22.5189C200.738 23.5189 203.798 25.9389 205.618 29.2189C207.448 32.5089 207.869 36.3889 206.789 39.9889Z" fill="#C6E7FF"/>
<path d="M193.329 35.579C193.009 40.289 190.669 44.639 186.899 47.509C183.139 50.369 178.329 51.469 173.689 50.519C170.389 49.839 167.419 48.179 165.139 45.789C162.259 48.889 158.349 51.009 153.969 51.629C147.559 52.549 141.229 50.119 137.069 45.369C133.839 48.839 129.229 50.839 124.329 50.689C119.699 50.549 115.449 48.489 112.459 45.179C108.749 52.959 101.639 58.809 92.9386 60.789C82.5586 63.149 71.8186 59.559 64.9386 51.659C62.8086 54.919 59.3586 57.239 55.3286 57.879C50.1086 58.709 44.9486 56.569 41.8386 52.499C38.3186 56.709 33.3386 59.519 27.8086 60.339C22.3486 61.149 16.8386 59.929 12.2686 57.019C10.4886 62.699 6.16857 67.399 0.358566 69.559C-6.79143 72.199 -14.7314 70.469 -20.1114 65.289C-23.9214 66.269 -27.9814 65.969 -31.6614 64.369C-36.0214 62.469 -39.4114 58.939 -41.1314 54.589C-53.6214 56.629 -66.1714 50.3089 -71.8714 38.7389C-74.7914 38.6589 -77.5814 37.359 -79.5214 35.069C-82.0214 32.129 -82.6914 28.0389 -81.2514 24.4489C-79.8114 20.8589 -76.5114 18.369 -72.6714 17.959C-70.5714 17.739 -68.5114 18.159 -66.7214 19.109C-64.9114 16.349 -61.9814 14.4389 -58.6214 13.9389C-54.5214 13.3289 -50.4214 14.9289 -47.8214 18.0989C-44.0814 13.0489 -38.3214 9.71895 -31.9014 9.09895C-26.4914 8.57895 -21.1814 10.039 -16.8614 13.049C-15.1314 9.81895 -12.0314 7.40895 -8.26143 6.64895C-4.85143 5.96895 -1.42142 6.73895 1.30858 8.60895C2.75858 5.98895 4.99858 3.82895 7.77858 2.47895C10.2986 1.24895 13.0686 0.788951 15.7686 1.06895C20.5886 -11.001 32.7586 -18.881 46.1386 -17.921C58.6986 -17.021 69.0786 -8.54105 72.8086 2.93895C76.8486 0.24895 81.8886 -0.741048 86.7886 0.358952C91.4286 1.40895 95.3786 4.21895 97.9086 8.06895C100.059 5.53895 102.849 3.56895 106.039 2.37895C109.399 1.11895 112.989 0.808951 116.439 1.40895C120.959 -7.64105 130.739 -13.3911 141.369 -12.3111C151.719 -11.2611 159.979 -4.04105 162.809 5.36895C168.809 4.27895 175.099 5.69895 180.119 9.46895C184.559 12.809 187.519 17.619 188.579 22.889C191.919 26.239 193.649 30.859 193.329 35.579Z" fill="#FBFBFB"/>
<path d="M7.06253 51.7259C8.28653 52.9889 9.43754 53.7599 10.5935 54.2539C11.7465 54.7439 12.8685 54.9429 13.9895 54.9339C15.1105 54.9129 16.2255 54.6909 17.3665 54.1749C18.5105 53.6559 19.6435 52.8629 20.8445 51.5739C21.2755 53.3019 20.6175 55.2519 19.3065 56.6499C18.0005 58.0609 16.0255 58.9239 14.0325 58.9319C12.0395 58.9619 10.0485 58.1439 8.71253 56.7619C7.37453 55.3939 6.67453 53.4619 7.06253 51.7259Z" fill="#C6E7FF"/>
<path d="M158.753 42.314C159.977 43.578 161.127 44.348 162.285 44.842C163.438 45.332 164.56 45.531 165.681 45.522C166.802 45.501 167.917 45.279 169.058 44.763C170.202 44.244 171.335 43.451 172.536 42.162C172.967 43.891 172.309 45.84 170.998 47.238C169.692 48.65 167.717 49.512 165.724 49.52C163.731 49.55 161.74 48.732 160.404 47.35C159.066 45.982 158.366 44.051 158.753 42.314Z" fill="#C6E7FF"/>
<path d="M92.0283 31.407C94.4683 35.465 97.5283 38.57 101.063 40.654C104.587 42.74 108.515 43.771 112.443 43.729C116.37 43.677 120.271 42.56 123.747 40.398C127.233 38.237 130.224 35.07 132.582 30.961C132.672 35.73 130.394 40.632 126.658 44.11C122.935 47.617 117.744 49.693 112.509 49.726C107.274 49.8 102.042 47.839 98.2443 44.416C94.4363 41.021 92.0503 36.175 92.0283 31.407Z" fill="#C6E7FF"/>
<path d="M53.9315 42.4289C55.8755 44.7079 57.8375 46.2099 59.8925 47.1889C61.9405 48.1639 64.0225 48.5929 66.1025 48.5739C68.1825 48.5389 70.2515 48.0659 72.2755 47.0469C74.3065 46.0219 76.2345 44.4819 78.1355 42.1629C78.6835 45.1419 77.4665 48.4179 75.1865 50.7599C72.9145 53.1239 69.5565 54.5569 66.1675 54.5729C62.7795 54.6239 59.3945 53.2659 57.0715 50.9529C54.7455 48.6609 53.4575 45.4179 53.9315 42.4289Z" fill="#C6E7FF"/>
<path d="M651.031 66.1381C650.671 72.6581 646.011 78.1381 639.631 79.5581C634.341 80.7381 628.931 78.8681 625.481 74.8981C623.601 76.6781 621.231 77.9481 618.581 78.4681C614.411 79.2981 610.161 78.1881 606.961 75.5881C603.491 79.5981 598.631 82.2981 593.221 83.0581C586.711 83.9781 580.211 81.9781 575.381 77.7181C573.551 79.6581 571.191 81.0881 568.511 81.7881C564.041 82.9681 559.321 81.9281 555.781 79.0981C552.651 83.3781 547.871 86.3181 542.431 87.0581C538.201 87.6281 533.991 86.8181 530.371 84.8681C527.801 87.7281 524.381 89.7981 520.501 90.6881C515.451 91.8581 510.211 90.9081 505.941 88.1881C502.651 94.2281 497.611 99.2381 491.361 102.478C482.971 106.828 473.221 107.568 464.341 104.608C459.941 111.378 452.911 116.208 444.731 117.748C435.221 119.538 425.551 116.618 418.651 110.128C409.371 117.418 397.281 120.458 385.441 118.188C373.361 115.868 363.071 108.288 357.221 97.7181C351.241 100.928 344.361 102.348 337.401 101.628C328.981 100.758 321.311 96.8381 315.701 90.7781C313.071 93.5781 309.451 95.3481 305.501 95.6181C299.811 96.0181 294.361 93.2381 291.341 88.4081C289.001 84.6581 288.411 80.1581 289.591 76.0181C291.351 81.0781 295.771 84.8281 301.181 85.6681C306.571 86.4981 311.901 84.2481 315.101 79.9881C317.481 84.0081 321.791 86.5881 326.571 86.7281C331.041 86.8481 335.211 84.8081 337.871 81.3781C340.591 84.3181 344.761 85.6581 348.821 84.6481C352.191 83.8081 354.861 81.4981 356.251 78.5281C364.181 89.4881 378.151 94.7081 391.581 91.2381C403.181 88.2381 412.001 79.3681 415.231 68.3481C418.221 75.5581 425.111 80.7581 433.341 81.2681C442.591 81.8381 450.891 76.3181 454.161 68.0581C457.071 77.7481 465.681 84.7381 475.911 85.4881C485.311 86.1681 494.121 81.4281 498.811 73.5381C502.111 78.5481 507.881 81.4881 513.991 81.0881C519.911 80.6881 525.101 77.2281 527.791 72.1181C531.281 75.3581 536.121 76.8281 540.901 75.9881C545.281 75.2181 549.061 72.6181 551.331 68.9381C554.511 72.1781 559.401 73.2881 563.761 71.5481C567.941 69.8881 570.671 65.9881 570.961 61.6681C580.911 69.6081 594.991 69.9081 605.261 62.4581C608.401 67.1581 613.761 69.9881 619.501 69.8781C624.341 69.7881 628.821 67.6181 631.881 64.0581C635.011 66.7581 639.411 67.6281 643.391 66.2081C646.421 65.1281 648.801 62.8781 650.071 60.0681C650.811 61.9581 651.151 64.0181 651.031 66.1381Z" fill="#C6E7FF"/>
<path d="M650.071 60.0681C648.801 62.8781 646.421 65.1281 643.391 66.2081C639.411 67.6281 635.011 66.7581 631.881 64.0581C628.821 67.6181 624.341 69.7881 619.501 69.8781C613.761 69.9881 608.401 67.1581 605.261 62.4581C594.991 69.9081 580.911 69.6081 570.961 61.6681C570.671 65.9881 567.941 69.8881 563.761 71.5481C559.401 73.2881 554.511 72.1781 551.331 68.9381C549.061 72.6181 545.281 75.2181 540.901 75.9881C536.121 76.8281 531.281 75.3581 527.791 72.1181C525.101 77.2281 519.911 80.6881 513.991 81.0881C507.881 81.4881 502.111 78.5481 498.811 73.5381C494.121 81.4281 485.311 86.1681 475.911 85.4881C465.681 84.7381 457.071 77.7481 454.161 68.0581C450.891 76.3181 442.591 81.8381 433.341 81.2681C425.111 80.7581 418.221 75.5581 415.231 68.3481C412.001 79.3681 403.181 88.2381 391.581 91.2381C378.151 94.7081 364.181 89.4881 356.251 78.5281C354.861 81.4981 352.191 83.8081 348.821 84.6481C344.761 85.6581 340.591 84.3181 337.871 81.3781C335.211 84.8081 331.041 86.8481 326.571 86.7281C321.791 86.5881 317.481 84.0081 315.101 79.9881C311.901 84.2481 306.571 86.4981 301.181 85.6681C295.771 84.8281 291.351 81.0781 289.591 76.0181C289.921 74.8081 290.411 73.6381 291.061 72.5181C293.761 67.8481 298.681 64.9281 304.041 64.8081C304.061 61.4881 305.541 58.2481 308.291 56.0581C311.771 53.2881 316.451 52.8781 320.271 54.7681C321.541 52.7481 323.551 51.3081 325.881 50.7681C326.401 50.6481 326.931 50.5681 327.461 50.5381C327.341 49.5881 327.311 48.6281 327.371 47.6581C327.631 43.4781 329.601 39.5881 332.811 36.9081C335.871 34.3581 339.811 33.1081 343.771 33.4281C343.391 28.9081 344.981 24.3281 348.321 20.9881C350.791 18.5081 353.941 16.9881 357.251 16.5081C361.771 0.668106 375.881 -10.9419 392.771 -11.9319C408.641 -12.8619 423.171 -4.1919 430.141 9.4681C434.041 7.0781 438.891 6.42811 443.431 7.91811C449.251 9.81811 453.401 14.8481 454.271 20.7881C462.071 17.3481 470.981 17.0281 479.091 20.0381C486.331 22.7281 492.311 27.8281 496.121 34.3581C501.471 29.9681 508.691 28.1881 515.691 29.8581C522.171 31.4181 527.471 35.6981 530.431 41.3681C534.271 36.9481 539.831 34.2381 545.861 34.0581C551.251 33.8981 556.391 35.7881 560.331 39.1881C563.591 26.9681 574.891 18.2881 587.901 18.6781C600.421 19.0581 610.851 27.7181 613.871 39.4081C618.341 39.1181 622.841 40.2281 626.731 42.6581C630.001 44.6981 632.611 47.5581 634.371 50.8781C636.621 50.5481 638.961 50.7481 641.221 51.5181C645.391 52.9581 648.561 56.1481 650.071 60.0681Z" fill="#FBFBFB"/>
<path d="M444.669 62.1201C446.099 64.1231 447.705 65.5601 449.478 66.5121C451.244 67.4641 453.134 67.9131 455.023 67.8941C456.911 67.8661 458.788 67.3761 460.532 66.3861C462.282 65.3941 463.856 63.9261 465.247 61.8931C465.488 64.3651 464.388 66.9911 462.473 68.8611C460.564 70.7471 457.827 71.8781 455.067 71.8931C452.307 71.9331 449.548 70.8641 447.599 69.0211C445.645 67.1931 444.488 64.5951 444.669 62.1201Z" fill="#C6E7FF"/>
<path d="M406.157 64.1711C407.423 65.5831 408.665 66.4881 409.945 67.0741C411.221 67.6571 412.497 67.9061 413.773 67.8951C415.048 67.8731 416.317 67.5961 417.579 66.9861C418.845 66.3721 420.066 65.4431 421.306 64.0051C421.699 65.8831 420.952 67.9691 419.52 69.4611C418.093 70.9681 415.965 71.8851 413.817 71.8941C411.67 71.9261 409.525 71.0581 408.065 69.5831C406.603 68.1211 405.811 66.0561 406.157 64.1711Z" fill="#C6E7FF"/>
<path d="M343.123 68.5741C345.666 71.7021 348.39 74.0831 351.413 75.7321C354.402 77.4081 357.636 78.3091 360.897 78.5451C364.161 78.7371 367.48 78.2581 370.668 77.0041C373.87 75.7561 376.896 73.7681 379.829 71.0021C379.1 75.0001 376.485 78.6831 372.944 81.1371C369.401 83.6101 364.905 84.8251 360.5 84.5311C356.099 84.2291 351.798 82.4471 348.62 79.5161C345.429 76.6271 343.331 72.6251 343.123 68.5741Z" fill="#C6E7FF"/>
<path d="M510.237 63.9061C513.226 66.6101 516.281 68.5501 519.519 69.7191C522.728 70.9211 526.061 71.3191 529.321 71.0571C532.576 70.7501 535.783 69.7721 538.744 68.0471C541.719 66.3271 544.407 63.9011 546.885 60.7211C546.773 64.7841 544.748 68.8211 541.622 71.7851C538.496 74.7681 534.237 76.6521 529.839 77.0321C525.444 77.4031 520.921 76.2961 517.335 73.8821C513.741 71.5151 511.059 67.8791 510.237 63.9061Z" fill="#C6E7FF"/>
<path d="M591.973 56.0261C594.062 57.9991 596.244 59.4331 598.577 60.3021C600.889 61.1951 603.31 61.4991 605.678 61.3081C608.042 61.0861 610.37 60.3611 612.498 59.0921C614.636 57.8271 616.548 56.0461 618.266 53.7411C618.125 56.6331 616.656 59.4891 614.417 61.5841C612.179 63.6921 609.15 65.0211 606.024 65.2921C602.899 65.5551 599.685 64.7791 597.122 63.0781C594.551 61.4091 592.618 58.8431 591.973 56.0261Z" fill="#C6E7FF"/>
<path d="M763.789 114.989C762.949 117.809 761.248 120.269 758.948 122.039C759.118 125.139 758.558 128.279 757.268 131.179C754.888 136.519 750.279 140.539 744.659 142.169C739.049 143.799 733.008 142.869 728.138 139.639C727.038 138.899 726.019 138.069 725.089 137.119C722.749 140.439 719.189 142.829 715.059 143.649C711.099 144.429 707.088 143.699 703.728 141.719C700.528 150.059 693.409 156.409 684.559 158.539C675.639 160.699 666.329 158.229 659.659 152.159C652.289 155.199 643.988 155.559 636.268 153.009C629.858 150.899 624.309 146.949 620.249 141.759C617.299 143.929 613.608 144.969 609.858 144.579C605.938 144.169 602.409 142.239 599.969 139.319C598.289 143.169 595.219 146.299 591.309 148.049C587.039 149.969 582.188 150.029 577.918 148.269C574.288 152.239 569.309 154.829 563.839 155.429C557.859 156.089 551.918 154.329 547.308 150.619C540.768 155.999 531.578 157.279 523.678 153.569C517.388 150.629 513.018 145.039 511.458 138.609C506.308 141.159 499.939 140.649 495.189 136.789C491.139 133.499 489.228 128.549 489.668 123.709C488.078 122.519 486.788 120.909 485.988 118.989C485.278 117.289 484.998 115.499 485.128 113.739C490.828 125.309 503.378 131.629 515.868 129.589C517.588 133.939 520.978 137.469 525.338 139.369C529.018 140.969 533.078 141.269 536.888 140.289C542.268 145.469 550.208 147.199 557.358 144.559C563.168 142.399 567.488 137.699 569.268 132.019C573.838 134.929 579.349 136.149 584.809 135.339C590.339 134.519 595.319 131.709 598.839 127.499C601.949 131.569 607.108 133.709 612.328 132.879C616.358 132.239 619.809 129.919 621.939 126.659C628.819 134.559 639.559 138.149 649.939 135.789C658.639 133.809 665.748 127.959 669.458 120.179C672.448 123.489 676.698 125.549 681.328 125.689C686.228 125.839 690.839 123.839 694.069 120.369C698.229 125.119 704.559 127.549 710.969 126.629C715.349 126.009 719.258 123.889 722.138 120.789C724.418 123.179 727.389 124.839 730.689 125.519C735.329 126.469 740.138 125.369 743.898 122.509C747.668 119.639 750.008 115.289 750.328 110.579C750.648 105.859 748.918 101.239 745.578 97.8889C748.298 96.8789 751.278 96.7489 754.118 97.5189C757.738 98.5189 760.798 100.939 762.618 104.219C764.448 107.509 764.869 111.389 763.789 114.989Z" fill="#C6E7FF"/>
<path d="M750.329 110.579C750.009 115.289 747.669 119.639 743.899 122.509C740.139 125.369 735.329 126.469 730.689 125.519C727.389 124.839 724.419 123.179 722.139 120.789C719.259 123.889 715.349 126.009 710.969 126.629C704.559 127.549 698.229 125.119 694.069 120.369C690.839 123.839 686.229 125.839 681.329 125.689C676.699 125.549 672.449 123.489 669.459 120.179C665.749 127.959 658.639 133.809 649.939 135.789C639.559 138.149 628.819 134.559 621.939 126.659C619.809 129.919 616.359 132.239 612.329 132.879C607.109 133.709 601.949 131.569 598.839 127.499C595.319 131.709 590.339 134.519 584.809 135.339C579.349 136.149 573.839 134.929 569.269 132.019C567.489 137.699 563.169 142.399 557.359 144.559C550.209 147.199 542.269 145.469 536.889 140.289C533.079 141.269 529.019 140.969 525.339 139.369C520.979 137.469 517.589 133.939 515.869 129.589C503.379 131.629 490.829 125.309 485.129 113.739C482.209 113.659 479.419 112.359 477.479 110.069C474.979 107.129 474.309 103.039 475.749 99.4489C477.189 95.8589 480.489 93.369 484.329 92.959C486.429 92.739 488.489 93.159 490.279 94.109C492.089 91.349 495.019 89.4389 498.379 88.9389C502.479 88.3289 506.579 89.9289 509.179 93.0989C512.919 88.0489 518.679 84.7189 525.099 84.0989C530.509 83.5789 535.819 85.039 540.139 88.049C541.869 84.819 544.969 82.409 548.739 81.649C552.149 80.969 555.579 81.739 558.309 83.609C559.759 80.989 561.999 78.829 564.779 77.479C567.299 76.249 570.069 75.789 572.769 76.069C577.589 63.999 589.759 56.119 603.139 57.079C615.699 57.979 626.079 66.459 629.809 77.9389C633.849 75.2489 638.889 74.259 643.789 75.359C648.429 76.409 652.379 79.219 654.909 83.069C657.059 80.539 659.849 78.569 663.039 77.379C666.399 76.119 669.989 75.809 673.439 76.409C677.959 67.359 687.739 61.6089 698.369 62.6889C708.719 63.7389 716.979 70.959 719.809 80.3689C725.809 79.2789 732.099 80.699 737.119 84.469C741.559 87.809 744.519 92.619 745.579 97.889C748.919 101.239 750.649 105.859 750.329 110.579Z" fill="#FBFBFB"/>
<path d="M564.063 126.726C565.287 127.989 566.438 128.76 567.594 129.254C568.747 129.744 569.869 129.943 570.99 129.934C572.111 129.913 573.226 129.691 574.367 129.175C575.511 128.656 576.644 127.863 577.845 126.574C578.276 128.302 577.618 130.252 576.307 131.65C575.001 133.061 573.026 133.924 571.033 133.932C569.04 133.962 567.049 133.144 565.713 131.762C564.375 130.394 563.675 128.462 564.063 126.726Z" fill="#C6E7FF"/>
<path d="M715.753 117.314C716.977 118.578 718.127 119.348 719.285 119.842C720.438 120.332 721.56 120.531 722.681 120.522C723.802 120.501 724.917 120.279 726.058 119.763C727.202 119.244 728.335 118.451 729.536 117.162C729.967 118.891 729.309 120.84 727.998 122.238C726.692 123.65 724.717 124.512 722.724 124.52C720.731 124.55 718.74 123.732 717.404 122.35C716.066 120.982 715.366 119.051 715.753 117.314Z" fill="#C6E7FF"/>
<path d="M649.028 106.407C651.468 110.465 654.528 113.57 658.063 115.654C661.587 117.74 665.515 118.771 669.443 118.729C673.37 118.677 677.271 117.56 680.747 115.398C684.233 113.237 687.224 110.07 689.582 105.961C689.672 110.73 687.394 115.632 683.658 119.11C679.935 122.617 674.744 124.693 669.509 124.726C664.274 124.8 659.042 122.839 655.244 119.416C651.436 116.021 649.05 111.175 649.028 106.407Z" fill="#C6E7FF"/>
<path d="M610.931 117.429C612.875 119.708 614.837 121.21 616.892 122.189C618.94 123.164 621.022 123.593 623.102 123.574C625.182 123.539 627.251 123.066 629.275 122.047C631.306 121.022 633.234 119.482 635.135 117.163C635.683 120.142 634.466 123.418 632.186 125.76C629.914 128.124 626.556 129.557 623.167 129.573C619.779 129.624 616.394 128.266 614.071 125.953C611.745 123.661 610.457 120.418 610.931 117.429Z" fill="#C6E7FF"/>
<path d="M529.203 127.341C527.973 129.438 525.884 131.009 523.522 131.893C521.151 132.775 518.478 132.955 515.961 132.406C513.441 131.866 511.083 130.593 509.291 128.806C507.507 127.022 506.259 124.722 506.015 122.302C507.759 123.975 509.439 125.308 511.235 126.333C513.02 127.36 514.883 128.073 516.81 128.498C518.739 128.917 520.731 129.041 522.782 128.847C524.843 128.661 526.925 128.144 529.203 127.341Z" fill="#C6E7FF"/>
<path d="M784.874 180.27C783.284 182 781.134 183.02 778.884 183.2C777.944 186.25 775.954 188.95 773.174 190.75C769.694 193.01 765.454 193.57 761.594 192.4C758.684 195.64 754.634 197.78 750.134 198.27C745.034 198.81 740.064 197.15 736.354 193.88C735.184 195.58 733.704 197.07 731.964 198.28C730.044 199.61 727.894 200.51 725.674 200.98C725.304 205.83 723.354 210.55 719.934 214.33C714.384 220.47 705.964 222.98 698.084 221.1C695.704 224.69 691.884 227.19 687.484 227.86C681.984 228.7 676.504 226.55 673.054 222.31C668.184 226.24 661.794 227.9 655.534 226.71C648.124 225.31 642.004 220.17 639.344 213.15C632.774 217.21 625.124 219.37 617.254 219.26C606.364 219.1 596.004 214.6 588.454 206.79C585.554 208.69 582.074 209.67 578.494 209.46C574.294 209.22 570.434 207.38 567.614 204.45C565.054 204.92 562.374 204.52 560.004 203.22C556.074 201.06 553.734 196.82 554.024 192.34C554.074 191.52 554.214 190.73 554.424 189.96C555.224 192.89 557.164 195.45 559.884 197C563.164 198.86 567.084 199.02 570.444 197.5C572.864 200.7 576.704 202.55 580.754 202.41C584.254 202.28 587.494 200.69 589.724 198.1C593.724 203.3 600.434 205.76 606.914 204.28C612.274 203.06 616.614 199.35 618.724 194.47C620.864 197.97 624.654 200.26 628.904 200.4C632.624 200.53 636.104 199 638.514 196.38C643.194 201.45 650.824 203 657.264 199.78C662.674 197.08 665.904 191.69 666.044 185.99C671.924 194.25 682.134 198.61 692.414 196.8C702.864 194.96 711.064 187.16 713.624 177.16C716.304 180.66 720.644 182.61 725.164 182.17C729.584 181.74 733.394 179.1 735.394 175.3C737.334 178.19 740.444 180.13 743.974 180.57C746.834 180.93 749.684 180.27 752.054 178.76C754.024 180.72 756.824 181.68 759.644 181.27C761.814 180.96 763.754 179.87 765.134 178.26C767.314 179.71 770.024 180.19 772.594 179.52C774.534 179.01 776.234 177.89 777.454 176.37C778.644 176.64 779.904 176.56 781.074 176.14C782.814 175.5 784.204 174.15 784.874 172.42C785.444 170.97 785.454 169.38 784.944 167.93C785.514 168.56 786.004 169.28 786.384 170.08C788.014 173.46 787.414 177.5 784.874 180.27Z" fill="#C6E7FF"/>
<path d="M784.874 172.42C784.204 174.15 782.814 175.5 781.074 176.14C779.904 176.56 778.644 176.64 777.454 176.37C776.234 177.89 774.534 179.01 772.594 179.52C770.024 180.19 767.314 179.71 765.134 178.26C763.754 179.87 761.814 180.96 759.644 181.27C756.824 181.68 754.024 180.72 752.054 178.76C749.684 180.27 746.834 180.93 743.974 180.57C740.444 180.13 737.334 178.19 735.394 175.3C733.394 179.1 729.584 181.74 725.164 182.17C720.644 182.61 716.304 180.66 713.624 177.16C711.064 187.16 702.864 194.96 692.414 196.8C682.134 198.61 671.924 194.25 666.044 185.99C665.904 191.69 662.674 197.08 657.264 199.78C650.824 203 643.194 201.45 638.514 196.38C636.104 199 632.624 200.53 628.904 200.4C624.654 200.26 620.864 197.97 618.724 194.47C616.614 199.35 612.274 203.06 606.914 204.28C600.434 205.76 593.724 203.3 589.724 198.1C587.494 200.69 584.254 202.28 580.754 202.41C576.704 202.55 572.864 200.7 570.444 197.5C567.084 199.02 563.164 198.86 559.884 197C557.164 195.45 555.224 192.89 554.424 189.96C555.384 186.51 557.924 183.65 561.344 182.31C565.054 180.85 569.214 181.41 572.374 183.72C573.464 180.06 576.284 177.03 580.094 175.76C581.714 175.22 583.374 175.05 584.984 175.21C585.324 168.47 589.224 162.21 595.524 159.02C600.614 156.45 606.394 156.34 611.404 158.35C612.104 155.36 613.834 152.66 616.384 150.78C618.234 149.41 620.374 148.58 622.574 148.31C623.944 133.83 634.964 121.75 649.754 119.4C662.614 117.37 675.034 123.22 681.844 133.57C687.624 129.94 694.944 129.3 701.394 132.14C706.434 134.36 710.264 138.41 712.284 143.28C718.474 141.28 725.234 141.46 731.414 143.92C738.084 146.59 743.434 151.67 746.454 158.04C749.604 157.22 753.004 157.45 756.114 158.8C759.954 160.48 762.844 163.66 764.184 167.48C766.634 166.82 769.214 166.84 771.654 167.54C773.184 166.02 775.234 165.06 777.474 164.9C780.344 164.7 783.074 165.85 784.934 167.92L784.944 167.93C785.454 169.38 785.444 170.97 784.874 172.42Z" fill="#FBFBFB"/>
<path d="M612.674 190.774C613.697 192.097 614.79 193.013 615.971 193.616C617.147 194.218 618.377 194.494 619.608 194.482C620.838 194.463 622.061 194.16 623.222 193.533C624.387 192.904 625.461 191.967 626.458 190.623C626.684 192.296 625.967 194.102 624.678 195.389C623.393 196.689 621.525 197.471 619.641 197.481C617.757 197.509 615.875 196.768 614.562 195.497C613.245 194.238 612.488 192.451 612.674 190.774Z" fill="#C6E7FF"/>
<path d="M706.922 173.254C707.944 174.577 709.038 175.493 710.219 176.096C711.395 176.698 712.625 176.974 713.856 176.962C715.086 176.943 716.309 176.64 717.47 176.013C718.635 175.384 719.709 174.447 720.706 173.103C720.933 174.776 720.215 176.582 718.926 177.87C717.641 179.169 715.773 179.952 713.889 179.962C712.005 179.99 710.123 179.249 708.81 177.978C707.493 176.717 706.736 174.931 706.922 173.254Z" fill="#C6E7FF"/>
<path d="M745.075 174.672C746.097 175.995 747.191 176.911 748.372 177.514C749.548 178.116 750.779 178.392 752.009 178.38C753.239 178.361 754.462 178.058 755.623 177.431C756.788 176.802 757.862 175.865 758.859 174.521C759.085 176.194 758.368 178 757.079 179.288C755.794 180.587 753.926 181.37 752.042 181.38C750.158 181.408 748.276 180.667 746.963 179.396C745.646 178.136 744.889 176.349 745.075 174.672Z" fill="#C6E7FF"/>
<path d="M650.688 176.818C652.82 179.77 655.197 181.879 657.812 183.276C660.418 184.672 663.199 185.328 665.978 185.3C668.757 185.258 671.519 184.542 674.093 183.09C676.674 181.635 679.005 179.48 681.078 176.483C681.453 180.139 679.835 184.031 677.004 186.802C674.183 189.598 670.131 191.275 666.044 191.297C661.958 191.356 657.873 189.771 654.993 187.038C652.104 184.33 650.401 180.48 650.688 176.818Z" fill="#C6E7FF"/>
<path d="M1138.87 84.2698C1137.28 85.9998 1135.13 87.0198 1132.88 87.1998C1131.94 90.2498 1129.95 92.9498 1127.17 94.7498C1123.69 97.0098 1119.45 97.5698 1115.59 96.3998C1112.68 99.6398 1108.63 101.78 1104.13 102.27C1099.03 102.81 1094.06 101.15 1090.35 97.8798C1089.18 99.5798 1087.7 101.07 1085.96 102.28C1084.04 103.61 1081.89 104.51 1079.67 104.98C1079.3 109.83 1077.35 114.55 1073.93 118.33C1068.38 124.47 1059.96 126.98 1052.08 125.1C1049.7 128.69 1045.88 131.19 1041.48 131.86C1035.98 132.7 1030.5 130.55 1027.05 126.31C1022.18 130.24 1015.79 131.9 1009.53 130.71C1002.12 129.31 996.004 124.17 993.344 117.15C986.774 121.21 979.124 123.37 971.254 123.26C960.364 123.1 950.004 118.6 942.454 110.79C939.554 112.69 936.074 113.67 932.494 113.46C928.294 113.22 924.434 111.38 921.614 108.45C919.054 108.92 916.374 108.52 914.004 107.22C910.074 105.06 907.734 100.82 908.024 96.3398C908.074 95.5198 908.214 94.7298 908.424 93.9598C909.224 96.8898 911.164 99.4498 913.884 101C917.164 102.86 921.084 103.02 924.444 101.5C926.864 104.7 930.704 106.55 934.754 106.41C938.254 106.28 941.494 104.69 943.724 102.1C947.724 107.3 954.434 109.76 960.914 108.28C966.274 107.06 970.614 103.35 972.724 98.4698C974.864 101.97 978.654 104.26 982.904 104.4C986.624 104.53 990.104 103 992.514 100.38C997.194 105.45 1004.82 107 1011.26 103.78C1016.67 101.08 1019.9 95.6898 1020.04 89.9898C1025.92 98.2498 1036.13 102.61 1046.41 100.8C1056.86 98.9598 1065.06 91.1598 1067.62 81.1598C1070.3 84.6598 1074.64 86.6098 1079.16 86.1698C1083.58 85.7398 1087.39 83.0998 1089.39 79.2998C1091.33 82.1898 1094.44 84.1298 1097.97 84.5698C1100.83 84.9298 1103.68 84.2698 1106.05 82.7598C1108.02 84.7198 1110.82 85.6798 1113.64 85.2698C1115.81 84.9598 1117.75 83.8698 1119.13 82.2598C1121.31 83.7098 1124.02 84.1898 1126.59 83.5198C1128.53 83.0098 1130.23 81.8898 1131.45 80.3698C1132.64 80.6398 1133.9 80.5598 1135.07 80.1398C1136.81 79.4998 1138.2 78.1498 1138.87 76.4198C1139.44 74.9698 1139.45 73.3798 1138.94 71.9298C1139.51 72.5598 1140 73.2798 1140.38 74.0798C1142.01 77.4598 1141.41 81.4998 1138.87 84.2698Z" fill="#C6E7FF"/>
<path d="M1138.87 76.4198C1138.2 78.1498 1136.81 79.4998 1135.07 80.1398C1133.9 80.5598 1132.64 80.6398 1131.45 80.3698C1130.23 81.8898 1128.53 83.0098 1126.59 83.5198C1124.02 84.1898 1121.31 83.7098 1119.13 82.2598C1117.75 83.8698 1115.81 84.9598 1113.64 85.2698C1110.82 85.6798 1108.02 84.7198 1106.05 82.7598C1103.68 84.2698 1100.83 84.9298 1097.97 84.5698C1094.44 84.1298 1091.33 82.1898 1089.39 79.2998C1087.39 83.0998 1083.58 85.7398 1079.16 86.1698C1074.64 86.6098 1070.3 84.6598 1067.62 81.1598C1065.06 91.1598 1056.86 98.9598 1046.41 100.8C1036.13 102.61 1025.92 98.2498 1020.04 89.9898C1019.9 95.6898 1016.67 101.08 1011.26 103.78C1004.82 107 997.194 105.45 992.514 100.38C990.104 103 986.624 104.53 982.904 104.4C978.654 104.26 974.864 101.97 972.724 98.4698C970.614 103.35 966.274 107.06 960.914 108.28C954.434 109.76 947.724 107.3 943.724 102.1C941.494 104.69 938.254 106.28 934.754 106.41C930.704 106.55 926.864 104.7 924.444 101.5C921.084 103.02 917.164 102.86 913.884 101C911.164 99.4498 909.224 96.8898 908.424 93.9598C909.384 90.5098 911.924 87.6498 915.344 86.3098C919.054 84.8498 923.214 85.4098 926.374 87.7198C927.464 84.0598 930.284 81.0298 934.094 79.7598C935.714 79.2198 937.374 79.0498 938.984 79.2098C939.324 72.4698 943.224 66.2098 949.524 63.0198C954.614 60.4498 960.394 60.3398 965.404 62.3498C966.104 59.3598 967.834 56.6598 970.384 54.7798C972.234 53.4098 974.374 52.5798 976.574 52.3098C977.944 37.8298 988.964 25.7498 1003.75 23.3998C1016.61 21.3698 1029.03 27.2198 1035.84 37.5698C1041.62 33.9398 1048.94 33.2998 1055.39 36.1398C1060.43 38.3598 1064.26 42.4098 1066.28 47.2798C1072.47 45.2798 1079.23 45.4598 1085.41 47.9198C1092.08 50.5898 1097.43 55.6698 1100.45 62.0398C1103.6 61.2198 1107 61.4498 1110.11 62.7998C1113.95 64.4798 1116.84 67.6598 1118.18 71.4798C1120.63 70.8198 1123.21 70.8398 1125.65 71.5398C1127.18 70.0198 1129.23 69.0598 1131.47 68.8998C1134.34 68.6998 1137.07 69.8498 1138.93 71.9198L1138.94 71.9298C1139.45 73.3798 1139.44 74.9698 1138.87 76.4198Z" fill="#FBFBFB"/>
<path d="M966.674 94.7738C967.697 96.0968 968.79 97.0128 969.971 97.6158C971.147 98.2178 972.377 98.4938 973.608 98.4818C974.838 98.4628 976.061 98.1598 977.222 97.5328C978.387 96.9038 979.461 95.9668 980.458 94.6228C980.684 96.2958 979.967 98.1018 978.678 99.3888C977.393 100.689 975.525 101.471 973.641 101.481C971.757 101.509 969.875 100.768 968.562 99.4968C967.245 98.2378 966.488 96.4508 966.674 94.7738Z" fill="#C6E7FF"/>
<path d="M1004.69 80.8178C1006.82 83.7698 1009.2 85.8788 1011.81 87.2758C1014.42 88.6718 1017.2 89.3278 1019.98 89.2998C1022.76 89.2578 1025.52 88.5418 1028.09 87.0898C1030.67 85.6348 1033 83.4798 1035.08 80.4828C1035.45 84.1388 1033.83 88.0308 1031 90.8018C1028.18 93.5978 1024.13 95.2748 1020.04 95.2968C1015.96 95.3558 1011.87 93.7708 1008.99 91.0378C1006.1 88.3298 1004.4 84.4798 1004.69 80.8178Z" fill="#C6E7FF"/>
<path d="M922.031 60.1381C921.671 66.6581 917.011 72.1381 910.631 73.5581C905.341 74.7381 899.931 72.8681 896.481 68.8981C894.601 70.6781 892.231 71.9481 889.581 72.4681C885.411 73.2981 881.161 72.1881 877.961 69.5881C874.491 73.5981 869.631 76.2981 864.221 77.0581C857.711 77.9781 851.211 75.9781 846.381 71.7181C844.551 73.6581 842.191 75.0881 839.511 75.7881C835.041 76.9681 830.321 75.9281 826.781 73.0981C823.651 77.3781 818.871 80.3181 813.431 81.0581C809.201 81.6281 804.991 80.8181 801.371 78.8681C798.801 81.7281 795.381 83.7981 791.501 84.6881C786.451 85.8581 781.211 84.9081 776.941 82.1881C773.651 88.2281 768.611 93.2381 762.361 96.4781C753.971 100.828 744.221 101.568 735.341 98.6081C730.941 105.378 723.911 110.208 715.731 111.748C706.221 113.538 696.551 110.618 689.651 104.128C680.371 111.418 668.281 114.458 656.441 112.188C644.361 109.868 634.071 102.288 628.221 91.7181C622.241 94.9281 615.361 96.3481 608.401 95.6281C599.981 94.7581 592.311 90.8381 586.701 84.7781C584.071 87.5781 580.451 89.3481 576.501 89.6181C570.811 90.0181 565.361 87.2381 562.341 82.4081C560.001 78.6581 559.411 74.1581 560.591 70.0181C562.351 75.0781 566.771 78.8281 572.181 79.6681C577.571 80.4981 582.901 78.2481 586.101 73.9881C588.481 78.0081 592.791 80.5881 597.571 80.7281C602.041 80.8481 606.211 78.8081 608.871 75.3781C611.591 78.3181 615.761 79.6581 619.821 78.6481C623.191 77.8081 625.861 75.4981 627.251 72.5281C635.181 83.4881 649.151 88.7081 662.581 85.2381C674.181 82.2381 683.001 73.3681 686.231 62.3481C689.221 69.5581 696.111 74.7581 704.341 75.2681C713.591 75.8381 721.891 70.3181 725.161 62.0581C728.071 71.7481 736.681 78.7381 746.911 79.4881C756.311 80.1681 765.121 75.4281 769.811 67.5381C773.111 72.5481 778.881 75.4881 784.991 75.0881C790.911 74.6881 796.101 71.2281 798.791 66.1181C802.281 69.3581 807.121 70.8281 811.901 69.9881C816.281 69.2181 820.061 66.6181 822.331 62.9381C825.511 66.1781 830.401 67.2881 834.761 65.5481C838.941 63.8881 841.671 59.9881 841.961 55.6681C851.911 63.6081 865.991 63.9081 876.261 56.4581C879.401 61.1581 884.761 63.9881 890.501 63.8781C895.341 63.7881 899.821 61.6181 902.881 58.0581C906.011 60.7581 910.411 61.6281 914.391 60.2081C917.421 59.1281 919.801 56.8781 921.071 54.0681C921.811 55.9581 922.151 58.0181 922.031 60.1381Z" fill="#C6E7FF"/>
<path d="M921.071 54.0681C919.801 56.8781 917.421 59.1281 914.391 60.2081C910.411 61.6281 906.011 60.7581 902.881 58.0581C899.821 61.6181 895.341 63.7881 890.501 63.8781C884.761 63.9881 879.401 61.1581 876.261 56.4581C865.991 63.9081 851.911 63.6081 841.961 55.6681C841.671 59.9881 838.941 63.8881 834.761 65.5481C830.401 67.2881 825.511 66.1781 822.331 62.9381C820.061 66.6181 816.281 69.2181 811.901 69.9881C807.121 70.8281 802.281 69.3581 798.791 66.1181C796.101 71.2281 790.911 74.6881 784.991 75.0881C778.881 75.4881 773.111 72.5481 769.811 67.5381C765.121 75.4281 756.311 80.1681 746.911 79.4881C736.681 78.7381 728.071 71.7481 725.161 62.0581C721.891 70.3181 713.591 75.8381 704.341 75.2681C696.111 74.7581 689.221 69.5581 686.231 62.3481C683.001 73.3681 674.181 82.2381 662.581 85.2381C649.151 88.7081 635.181 83.4881 627.251 72.5281C625.861 75.4981 623.191 77.8081 619.821 78.6481C615.761 79.6581 611.591 78.3181 608.871 75.3781C606.211 78.8081 602.041 80.8481 597.571 80.7281C592.791 80.5881 588.481 78.0081 586.101 73.9881C582.901 78.2481 577.571 80.4981 572.181 79.6681C566.771 78.8281 562.351 75.0781 560.591 70.0181C560.921 68.8081 561.411 67.6381 562.061 66.5181C564.761 61.8481 569.681 58.9281 575.041 58.8081C575.061 55.4881 576.541 52.2481 579.291 50.0581C582.771 47.2881 587.451 46.8781 591.271 48.7681C592.541 46.7481 594.551 45.3081 596.881 44.7681C597.401 44.6481 597.931 44.5681 598.461 44.5381C598.341 43.5881 598.311 42.6281 598.371 41.6581C598.631 37.4781 600.601 33.5881 603.811 30.9081C606.871 28.3581 610.811 27.1081 614.771 27.4281C614.391 22.9081 615.981 18.3281 619.321 14.9881C621.791 12.5081 624.941 10.9881 628.251 10.5081C632.771 -5.33189 646.881 -16.9419 663.771 -17.9319C679.641 -18.8619 694.171 -10.1919 701.141 3.4681C705.041 1.0781 709.891 0.42811 714.431 1.91811C720.251 3.81811 724.401 8.8481 725.271 14.7881C733.071 11.3481 741.981 11.0281 750.091 14.0381C757.331 16.7281 763.311 21.8281 767.121 28.3581C772.471 23.9681 779.691 22.1881 786.691 23.8581C793.171 25.4181 798.471 29.6981 801.431 35.3681C805.271 30.9481 810.831 28.2381 816.861 28.0581C822.251 27.8981 827.391 29.7881 831.331 33.1881C834.591 20.9681 845.891 12.2881 858.901 12.6781C871.421 13.0581 881.851 21.7181 884.871 33.4081C889.341 33.1181 893.841 34.2281 897.731 36.6581C901.001 38.6981 903.611 41.5581 905.371 44.8781C907.621 44.5481 909.961 44.7481 912.221 45.5181C916.391 46.9581 919.561 50.1481 921.071 54.0681Z" fill="#FBFBFB"/>
<path d="M715.669 56.1201C717.099 58.1231 718.705 59.5601 720.478 60.5121C722.244 61.4641 724.134 61.9131 726.023 61.8941C727.911 61.8661 729.788 61.3761 731.532 60.3861C733.282 59.3941 734.856 57.9261 736.247 55.8931C736.488 58.3651 735.388 60.9911 733.473 62.8611C731.564 64.7471 728.827 65.8781 726.067 65.8931C723.307 65.9331 720.548 64.8641 718.599 63.0211C716.645 61.1931 715.488 58.5951 715.669 56.1201Z" fill="#C6E7FF"/>
<path d="M677.157 58.1711C678.423 59.5831 679.665 60.4881 680.945 61.0741C682.221 61.6571 683.497 61.9061 684.773 61.8951C686.048 61.8731 687.317 61.5961 688.579 60.9861C689.845 60.3721 691.066 59.4431 692.306 58.0051C692.699 59.8831 691.952 61.9691 690.52 63.4611C689.093 64.9681 686.965 65.8851 684.817 65.8941C682.67 65.9261 680.525 65.0581 679.065 63.5831C677.603 62.1211 676.811 60.0561 677.157 58.1711Z" fill="#C6E7FF"/>
<path d="M614.123 62.5741C616.666 65.7021 619.39 68.0831 622.413 69.7321C625.402 71.4081 628.636 72.3091 631.897 72.5451C635.161 72.7371 638.48 72.2581 641.668 71.0041C644.87 69.7561 647.896 67.7681 650.829 65.0021C650.1 69.0001 647.485 72.6831 643.944 75.1371C640.401 77.6101 635.905 78.8251 631.5 78.5311C627.099 78.2291 622.798 76.4471 619.62 73.5161C616.429 70.6271 614.331 66.6251 614.123 62.5741Z" fill="#C6E7FF"/>
<path d="M781.237 57.9061C784.226 60.6101 787.281 62.5501 790.519 63.7191C793.728 64.9211 797.061 65.3191 800.321 65.0571C803.576 64.7501 806.783 63.7721 809.744 62.0471C812.719 60.3271 815.407 57.9011 817.885 54.7211C817.773 58.7841 815.748 62.8211 812.622 65.7851C809.496 68.7681 805.237 70.6521 800.839 71.0321C796.444 71.4031 791.921 70.2961 788.335 67.8821C784.741 65.5151 782.059 61.8791 781.237 57.9061Z" fill="#C6E7FF"/>
<path d="M862.973 50.0261C865.062 51.9991 867.244 53.4331 869.577 54.3021C871.889 55.1951 874.31 55.4991 876.678 55.3081C879.042 55.0861 881.37 54.3611 883.498 53.0921C885.636 51.8271 887.548 50.0461 889.266 47.7411C889.125 50.6331 887.656 53.4891 885.417 55.5841C883.179 57.6921 880.15 59.0211 877.024 59.2921C873.899 59.5551 870.685 58.7791 868.122 57.0781C865.551 55.4091 863.618 52.8431 862.973 50.0261Z" fill="#C6E7FF"/>
<path d="M1021.87 68.2698C1020.28 69.9998 1018.13 71.0198 1015.88 71.1998C1014.94 74.2498 1012.95 76.9498 1010.17 78.7498C1006.69 81.0098 1002.45 81.5698 998.594 80.3998C995.684 83.6398 991.634 85.7798 987.134 86.2698C982.034 86.8098 977.064 85.1498 973.354 81.8798C972.184 83.5798 970.704 85.0698 968.964 86.2798C967.044 87.6098 964.894 88.5098 962.674 88.9798C962.304 93.8298 960.354 98.5498 956.934 102.33C951.384 108.47 942.964 110.98 935.084 109.1C932.704 112.69 928.884 115.19 924.484 115.86C918.984 116.7 913.504 114.55 910.054 110.31C905.184 114.24 898.794 115.9 892.534 114.71C885.124 113.31 879.004 108.17 876.344 101.15C869.774 105.21 862.124 107.37 854.254 107.26C843.364 107.1 833.004 102.6 825.454 94.7898C822.554 96.6898 819.074 97.6698 815.494 97.4598C811.294 97.2198 807.434 95.3798 804.614 92.4498C802.054 92.9198 799.374 92.5198 797.004 91.2198C793.074 89.0598 790.734 84.8198 791.024 80.3398C791.074 79.5198 791.214 78.7298 791.424 77.9598C792.224 80.8898 794.164 83.4498 796.884 84.9998C800.164 86.8598 804.084 87.0198 807.444 85.4998C809.864 88.6998 813.704 90.5498 817.754 90.4098C821.254 90.2798 824.494 88.6898 826.724 86.0998C830.724 91.2998 837.434 93.7598 843.914 92.2798C849.274 91.0598 853.614 87.3498 855.724 82.4698C857.864 85.9698 861.654 88.2598 865.904 88.3998C869.624 88.5298 873.104 86.9998 875.514 84.3798C880.194 89.4498 887.824 90.9998 894.264 87.7798C899.674 85.0798 902.904 79.6898 903.044 73.9898C908.924 82.2498 919.134 86.6098 929.414 84.7998C939.864 82.9598 948.064 75.1598 950.624 65.1598C953.304 68.6598 957.644 70.6098 962.164 70.1698C966.584 69.7398 970.394 67.0998 972.394 63.2998C974.334 66.1898 977.444 68.1298 980.974 68.5698C983.834 68.9298 986.684 68.2698 989.054 66.7598C991.024 68.7198 993.824 69.6798 996.644 69.2698C998.814 68.9598 1000.75 67.8698 1002.13 66.2598C1004.31 67.7098 1007.02 68.1898 1009.59 67.5198C1011.53 67.0098 1013.23 65.8898 1014.45 64.3698C1015.64 64.6398 1016.9 64.5598 1018.07 64.1398C1019.81 63.4998 1021.2 62.1498 1021.87 60.4198C1022.44 58.9698 1022.45 57.3798 1021.94 55.9298C1022.51 56.5598 1023 57.2798 1023.38 58.0798C1025.01 61.4598 1024.41 65.4998 1021.87 68.2698Z" fill="#C6E7FF"/>
<path d="M1021.87 60.4198C1021.2 62.1498 1019.81 63.4998 1018.07 64.1398C1016.9 64.5598 1015.64 64.6398 1014.45 64.3698C1013.23 65.8898 1011.53 67.0098 1009.59 67.5198C1007.02 68.1898 1004.31 67.7098 1002.13 66.2598C1000.75 67.8698 998.814 68.9598 996.644 69.2698C993.824 69.6798 991.024 68.7198 989.054 66.7598C986.684 68.2698 983.834 68.9298 980.974 68.5698C977.444 68.1298 974.334 66.1898 972.394 63.2998C970.394 67.0998 966.584 69.7398 962.164 70.1698C957.644 70.6098 953.304 68.6598 950.624 65.1598C948.064 75.1598 939.864 82.9598 929.414 84.7998C919.134 86.6098 908.924 82.2498 903.044 73.9898C902.904 79.6898 899.674 85.0798 894.264 87.7798C887.824 90.9998 880.194 89.4498 875.514 84.3798C873.104 86.9998 869.624 88.5298 865.904 88.3998C861.654 88.2598 857.864 85.9698 855.724 82.4698C853.614 87.3498 849.274 91.0598 843.914 92.2798C837.434 93.7598 830.724 91.2998 826.724 86.0998C824.494 88.6898 821.254 90.2798 817.754 90.4098C813.704 90.5498 809.864 88.6998 807.444 85.4998C804.084 87.0198 800.164 86.8598 796.884 84.9998C794.164 83.4498 792.224 80.8898 791.424 77.9598C792.384 74.5098 794.924 71.6498 798.344 70.3098C802.054 68.8498 806.214 69.4098 809.374 71.7198C810.464 68.0598 813.284 65.0298 817.094 63.7598C818.714 63.2198 820.374 63.0498 821.984 63.2098C822.324 56.4698 826.224 50.2098 832.524 47.0198C837.614 44.4498 843.394 44.3398 848.404 46.3498C849.104 43.3598 850.834 40.6598 853.384 38.7798C855.234 37.4098 857.374 36.5798 859.574 36.3098C860.944 21.8298 871.964 9.74976 886.754 7.39976C899.614 5.36976 912.034 11.2198 918.844 21.5698C924.624 17.9398 931.944 17.2998 938.394 20.1398C943.434 22.3598 947.264 26.4098 949.284 31.2798C955.474 29.2798 962.234 29.4598 968.414 31.9198C975.084 34.5898 980.434 39.6698 983.454 46.0398C986.604 45.2198 990.004 45.4498 993.114 46.7998C996.954 48.4798 999.844 51.6598 1001.18 55.4798C1003.63 54.8198 1006.21 54.8398 1008.65 55.5398C1010.18 54.0198 1012.23 53.0598 1014.47 52.8998C1017.34 52.6998 1020.07 53.8498 1021.93 55.9198L1021.94 55.9298C1022.45 57.3798 1022.44 58.9698 1021.87 60.4198Z" fill="#FBFBFB"/>
<path d="M849.674 78.7738C850.697 80.0968 851.79 81.0128 852.971 81.6158C854.147 82.2178 855.377 82.4938 856.608 82.4818C857.838 82.4628 859.061 82.1598 860.222 81.5328C861.387 80.9038 862.461 79.9668 863.458 78.6228C863.684 80.2958 862.967 82.1018 861.678 83.3888C860.393 84.6888 858.525 85.4708 856.641 85.4808C854.757 85.5088 852.875 84.7678 851.562 83.4968C850.245 82.2378 849.488 80.4508 849.674 78.7738Z" fill="#C6E7FF"/>
<path d="M943.922 61.2538C944.944 62.5768 946.038 63.4928 947.219 64.0958C948.395 64.6978 949.625 64.9738 950.856 64.9618C952.086 64.9428 953.309 64.6398 954.47 64.0128C955.635 63.3838 956.709 62.4468 957.706 61.1028C957.933 62.7758 957.215 64.5818 955.926 65.8698C954.641 67.1688 952.773 67.9518 950.889 67.9618C949.005 67.9898 947.123 67.2488 945.81 65.9778C944.493 64.7168 943.736 62.9308 943.922 61.2538Z" fill="#C6E7FF"/>
<path d="M982.075 62.6718C983.097 63.9948 984.191 64.9108 985.372 65.5138C986.548 66.1158 987.779 66.3918 989.009 66.3798C990.239 66.3608 991.462 66.0578 992.623 65.4308C993.788 64.8018 994.862 63.8648 995.859 62.5208C996.085 64.1938 995.368 65.9998 994.079 67.2878C992.794 68.5868 990.926 69.3698 989.042 69.3798C987.158 69.4078 985.276 68.6668 983.963 67.3958C982.646 66.1358 981.889 64.3488 982.075 62.6718Z" fill="#C6E7FF"/>
<path d="M887.688 64.8178C889.82 67.7698 892.197 69.8788 894.812 71.2758C897.418 72.6718 900.199 73.3278 902.978 73.2998C905.757 73.2578 908.519 72.5418 911.093 71.0898C913.674 69.6348 916.005 67.4798 918.078 64.4828C918.453 68.1388 916.835 72.0308 914.004 74.8018C911.183 77.5978 907.131 79.2748 903.044 79.2968C898.958 79.3558 894.873 77.7708 891.993 75.0378C889.104 72.3298 887.401 68.4798 887.688 64.8178Z" fill="#C6E7FF"/>
<path d="M1058.03 133.138C1057.67 139.658 1053.01 145.138 1046.63 146.558C1041.34 147.738 1035.93 145.868 1032.48 141.898C1030.6 143.678 1028.23 144.948 1025.58 145.468C1021.41 146.298 1017.16 145.188 1013.96 142.588C1010.49 146.598 1005.63 149.298 1000.22 150.058C993.711 150.978 987.211 148.978 982.381 144.718C980.551 146.658 978.191 148.088 975.511 148.788C971.041 149.968 966.321 148.928 962.781 146.098C959.651 150.378 954.871 153.318 949.431 154.058C945.201 154.628 940.991 153.818 937.371 151.868C934.801 154.728 931.381 156.798 927.501 157.688C922.451 158.858 917.211 157.908 912.941 155.188C909.651 161.228 904.611 166.238 898.361 169.478C889.971 173.828 880.221 174.568 871.341 171.608C866.941 178.378 859.911 183.208 851.731 184.748C842.221 186.538 832.551 183.618 825.651 177.128C816.371 184.418 804.281 187.458 792.441 185.188C780.361 182.868 770.071 175.288 764.221 164.718C758.241 167.928 751.361 169.348 744.401 168.628C735.981 167.758 728.311 163.838 722.701 157.778C720.071 160.578 716.451 162.348 712.501 162.618C706.811 163.018 701.361 160.238 698.341 155.408C696.001 151.658 695.411 147.158 696.591 143.018C698.351 148.078 702.771 151.828 708.181 152.668C713.571 153.498 718.901 151.248 722.101 146.988C724.481 151.008 728.791 153.588 733.571 153.728C738.041 153.848 742.211 151.808 744.871 148.378C747.591 151.318 751.761 152.658 755.821 151.648C759.191 150.808 761.861 148.498 763.251 145.528C771.181 156.488 785.151 161.708 798.581 158.238C810.181 155.238 819.001 146.368 822.231 135.348C825.221 142.558 832.111 147.758 840.341 148.268C849.591 148.838 857.891 143.318 861.161 135.058C864.071 144.748 872.681 151.738 882.911 152.488C892.311 153.168 901.121 148.428 905.811 140.538C909.111 145.548 914.881 148.488 920.991 148.088C926.911 147.688 932.101 144.228 934.791 139.118C938.281 142.358 943.121 143.828 947.901 142.988C952.281 142.218 956.061 139.618 958.331 135.938C961.511 139.178 966.401 140.288 970.761 138.548C974.941 136.888 977.671 132.988 977.961 128.668C987.911 136.608 1001.99 136.908 1012.26 129.458C1015.4 134.158 1020.76 136.988 1026.5 136.878C1031.34 136.788 1035.82 134.618 1038.88 131.058C1042.01 133.758 1046.41 134.628 1050.39 133.208C1053.42 132.128 1055.8 129.878 1057.07 127.068C1057.81 128.958 1058.15 131.018 1058.03 133.138Z" fill="#C6E7FF"/>
<path d="M1057.07 127.068C1055.8 129.878 1053.42 132.128 1050.39 133.208C1046.41 134.628 1042.01 133.758 1038.88 131.058C1035.82 134.618 1031.34 136.788 1026.5 136.878C1020.76 136.988 1015.4 134.158 1012.26 129.458C1001.99 136.908 987.911 136.608 977.961 128.668C977.671 132.988 974.941 136.888 970.761 138.548C966.401 140.288 961.511 139.178 958.331 135.938C956.061 139.618 952.281 142.218 947.901 142.988C943.121 143.828 938.281 142.358 934.791 139.118C932.101 144.228 926.911 147.688 920.991 148.088C914.881 148.488 909.111 145.548 905.811 140.538C901.121 148.428 892.311 153.168 882.911 152.488C872.681 151.738 864.071 144.748 861.161 135.058C857.891 143.318 849.591 148.838 840.341 148.268C832.111 147.758 825.221 142.558 822.231 135.348C819.001 146.368 810.181 155.238 798.581 158.238C785.151 161.708 771.181 156.488 763.251 145.528C761.861 148.498 759.191 150.808 755.821 151.648C751.761 152.658 747.591 151.318 744.871 148.378C742.211 151.808 738.041 153.848 733.571 153.728C728.791 153.588 724.481 151.008 722.101 146.988C718.901 151.248 713.571 153.498 708.181 152.668C702.771 151.828 698.351 148.078 696.591 143.018C696.921 141.808 697.411 140.638 698.061 139.518C700.761 134.848 705.681 131.928 711.041 131.808C711.061 128.488 712.541 125.248 715.291 123.058C718.771 120.288 723.451 119.878 727.271 121.768C728.541 119.748 730.551 118.308 732.881 117.768C733.401 117.648 733.931 117.568 734.461 117.538C734.341 116.588 734.311 115.628 734.371 114.658C734.631 110.478 736.601 106.588 739.811 103.908C742.871 101.358 746.811 100.108 750.771 100.428C750.391 95.9081 751.981 91.3281 755.321 87.9881C757.791 85.5081 760.941 83.9881 764.251 83.5081C768.771 67.6681 782.881 56.0581 799.771 55.0681C815.641 54.1381 830.171 62.8081 837.141 76.4681C841.041 74.0781 845.891 73.4281 850.431 74.9181C856.251 76.8181 860.401 81.8481 861.271 87.7881C869.071 84.3481 877.981 84.0281 886.091 87.0381C893.331 89.7281 899.311 94.8281 903.121 101.358C908.471 96.9681 915.691 95.1881 922.691 96.8581C929.171 98.4181 934.471 102.698 937.431 108.368C941.271 103.948 946.831 101.238 952.861 101.058C958.251 100.898 963.391 102.788 967.331 106.188C970.591 93.9681 981.891 85.2881 994.901 85.6781C1007.42 86.0581 1017.85 94.7181 1020.87 106.408C1025.34 106.118 1029.84 107.228 1033.73 109.658C1037 111.698 1039.61 114.558 1041.37 117.878C1043.62 117.548 1045.96 117.748 1048.22 118.518C1052.39 119.958 1055.56 123.148 1057.07 127.068Z" fill="#FBFBFB"/>
<path d="M851.669 129.12C853.099 131.123 854.705 132.56 856.478 133.512C858.244 134.464 860.134 134.913 862.023 134.894C863.911 134.866 865.788 134.376 867.532 133.386C869.282 132.394 870.856 130.926 872.247 128.893C872.488 131.365 871.388 133.991 869.473 135.861C867.564 137.747 864.827 138.878 862.067 138.893C859.307 138.933 856.548 137.864 854.599 136.021C852.645 134.193 851.488 131.595 851.669 129.12Z" fill="#C6E7FF"/>
<path d="M813.157 131.171C814.423 132.583 815.665 133.488 816.945 134.074C818.221 134.657 819.497 134.906 820.773 134.895C822.048 134.873 823.317 134.596 824.579 133.986C825.845 133.372 827.066 132.443 828.306 131.005C828.699 132.883 827.952 134.969 826.52 136.461C825.093 137.968 822.965 138.885 820.817 138.894C818.67 138.926 816.525 138.058 815.065 136.583C813.603 135.121 812.811 133.056 813.157 131.171Z" fill="#C6E7FF"/>
<path d="M750.123 135.574C752.666 138.702 755.39 141.083 758.413 142.732C761.402 144.408 764.636 145.309 767.897 145.545C771.161 145.737 774.48 145.258 777.668 144.004C780.87 142.756 783.896 140.768 786.829 138.002C786.1 142 783.485 145.683 779.944 148.137C776.401 150.61 771.905 151.825 767.5 151.531C763.099 151.229 758.798 149.447 755.62 146.516C752.429 143.627 750.331 139.625 750.123 135.574Z" fill="#C6E7FF"/>
<path d="M917.237 130.906C920.226 133.61 923.281 135.55 926.519 136.719C929.728 137.921 933.061 138.319 936.321 138.057C939.576 137.75 942.783 136.772 945.744 135.047C948.719 133.327 951.407 130.901 953.885 127.721C953.773 131.784 951.748 135.821 948.622 138.785C945.496 141.768 941.237 143.652 936.839 144.032C932.444 144.403 927.921 143.296 924.335 140.882C920.741 138.515 918.059 134.879 917.237 130.906Z" fill="#C6E7FF"/>
<path d="M998.973 123.026C1001.06 124.999 1003.24 126.433 1005.58 127.302C1007.89 128.195 1010.31 128.499 1012.68 128.308C1015.04 128.086 1017.37 127.361 1019.5 126.092C1021.64 124.827 1023.55 123.046 1025.27 120.741C1025.12 123.633 1023.66 126.489 1021.42 128.584C1019.18 130.692 1016.15 132.021 1013.02 132.292C1009.9 132.555 1006.68 131.779 1004.12 130.078C1001.55 128.409 999.618 125.843 998.973 123.026Z" fill="#C6E7FF"/>
<path d="M639.27 167.099C638.95 169.689 637.53 172.029 635.37 173.499C633.21 174.969 630.51 175.429 627.98 174.769C625.88 174.219 624.06 172.929 622.84 171.169C621.8 172.419 620.31 173.279 618.61 173.539C616.07 173.919 613.59 172.879 612.09 170.919C610.18 173.909 606.91 175.909 603.19 176.139C599.24 176.389 595.55 174.579 593.3 171.539C590.37 174.729 586.25 176.759 581.71 177.009C575.92 177.329 570.5 174.689 567.16 170.199C565.54 172.419 563.28 174.179 560.58 175.199C555.9 176.969 550.74 176.169 546.86 173.289C544.45 178.749 539.72 183.049 533.69 184.759C525.69 187.039 517.21 184.239 512.1 177.919C509.99 179.719 507.42 180.969 504.61 181.509C500.65 182.269 496.6 181.529 493.2 179.499C489.89 182.109 485.73 183.489 481.46 183.339C477.35 183.199 473.45 181.659 470.38 179.019C466.72 181.189 462.4 182.049 458.13 181.419C454.7 180.909 451.52 179.469 448.91 177.299C446.48 178.909 443.36 179.259 440.58 178.129C437.22 176.759 435.01 173.489 435 169.849C435 169.529 435.02 169.209 435.06 168.899C436.13 171.129 438.33 172.689 440.91 172.889C442.89 173.039 444.77 172.349 446.17 171.099C448.97 172.869 452.49 173.259 455.68 172.049C459.12 170.739 461.62 167.769 462.35 164.229C465.11 165.999 468.65 166.349 471.8 164.979C475.63 163.289 477.98 159.429 477.78 155.319C480.32 155.599 482.91 155.079 485.17 153.829C487.62 152.469 489.54 150.329 490.62 147.779C492.88 154.329 499.34 158.699 506.46 158.119C511.65 157.699 516.07 154.739 518.54 150.519C520.34 153.009 523.12 154.729 526.34 155.129C529.77 155.559 533.09 154.419 535.5 152.179C538.37 157.549 544.39 160.659 550.58 159.699C554.76 159.049 558.3 156.659 560.5 153.339C563.14 156.699 567.17 158.789 571.57 158.949C575.34 159.079 578.95 157.769 581.72 155.389C584.38 160.719 589.48 164.499 595.45 165.439C600.7 166.259 605.98 164.799 610.02 161.539C614.36 165.019 620.31 165.579 625.19 163.099C626.44 164.849 628.41 166.029 630.64 166.219C633.89 166.499 636.95 164.629 638.19 161.609C639.12 163.259 639.51 165.179 639.27 167.099Z" fill="#C6E7FF"/>
<path d="M638.19 161.609C636.95 164.629 633.89 166.499 630.64 166.219C628.41 166.029 626.44 164.849 625.19 163.099C620.31 165.579 614.36 165.019 610.02 161.539C605.98 164.799 600.7 166.259 595.45 165.439C589.48 164.499 584.38 160.719 581.72 155.389C578.95 157.769 575.34 159.079 571.57 158.949C567.17 158.789 563.14 156.699 560.5 153.339C558.3 156.659 554.76 159.049 550.58 159.699C544.39 160.659 538.37 157.549 535.5 152.179C533.09 154.419 529.77 155.559 526.34 155.129C523.12 154.729 520.34 153.009 518.54 150.519C516.07 154.739 511.65 157.699 506.46 158.119C499.34 158.699 492.88 154.329 490.62 147.779C489.54 150.329 487.62 152.469 485.17 153.829C482.91 155.079 480.32 155.599 477.78 155.319C477.98 159.429 475.63 163.289 471.8 164.979C468.65 166.349 465.11 165.999 462.35 164.229C461.62 167.769 459.12 170.739 455.68 172.049C452.49 173.259 448.97 172.869 446.17 171.099C444.77 172.349 442.89 173.039 440.91 172.889C438.33 172.689 436.13 171.129 435.06 168.899C435.39 165.659 437.48 162.819 440.54 161.549C442.11 160.899 443.8 160.719 445.41 160.989C445.52 159.839 445.93 158.699 446.65 157.709C448.48 155.179 451.74 154.269 454.56 155.339C455.56 153.689 456.95 152.269 458.64 151.229C461.26 149.629 464.35 149.089 467.3 149.659C467.57 147.669 468.55 145.789 470.14 144.399C471.07 143.589 472.15 143.009 473.28 142.669C473.07 134.999 476.82 127.619 483.4 123.299C487.68 120.489 492.66 119.289 497.54 119.689C497.59 114.629 499.31 109.679 502.51 105.659C506.6 100.509 512.71 97.369 519.27 97.029C525.84 96.699 532.23 99.199 536.83 103.899C539.91 107.039 541.98 110.969 542.86 115.189C548.26 114.129 553.94 114.999 558.85 117.789C563.71 120.549 567.35 124.919 569.21 130.039C572.96 128.329 577.33 128.189 581.31 129.829C585.33 131.489 588.33 134.729 589.76 138.629C595.75 135.249 602.9 134.259 609.72 136.039C617.59 138.089 624.03 143.569 627.37 150.859C630.59 149.649 634.34 150.519 636.69 153.269C638.72 155.649 639.19 158.849 638.19 161.609Z" fill="#FBFBFB"/>
<path d="M483.236 143.887C484.258 145.21 485.352 146.126 486.533 146.728C487.709 147.33 488.94 147.606 490.17 147.594C491.4 147.575 492.623 147.272 493.784 146.645C494.949 146.016 496.023 145.079 497.02 143.735C497.246 145.408 496.529 147.213 495.24 148.501C493.955 149.8 492.087 150.583 490.203 150.593C488.319 150.621 486.437 149.88 485.124 148.609C483.807 147.35 483.05 145.563 483.236 143.887Z" fill="#C6E7FF"/>
<path d="M550.444 146.252C549.385 148.837 547.317 151.011 544.813 152.481C542.301 153.951 539.325 154.707 536.367 154.63C533.408 154.563 530.472 153.657 528.038 152.062C525.61 150.468 523.654 148.19 522.731 145.552C524.987 147.175 527.187 148.423 529.483 149.269C531.769 150.119 534.112 150.568 536.468 150.633C538.824 150.693 541.189 150.362 543.516 149.629C545.853 148.9 548.113 147.762 550.444 146.252Z" fill="#C6E7FF"/>
<path d="M567.005 143.954C569.548 147.082 572.272 149.463 575.295 151.112C578.284 152.789 581.517 153.689 584.779 153.925C588.043 154.117 591.362 153.638 594.55 152.384C597.752 151.136 600.778 149.148 603.711 146.382C602.982 150.38 600.367 154.063 596.826 156.517C593.283 158.99 588.787 160.205 584.382 159.911C579.981 159.609 575.68 157.827 572.502 154.896C569.311 152.007 567.214 148.005 567.005 143.954Z" fill="#C6E7FF"/>
<path d="M376.789 83.9889C375.949 86.8089 374.248 89.2689 371.948 91.0389C372.118 94.1389 371.558 97.2789 370.268 100.179C367.888 105.519 363.279 109.539 357.659 111.169C352.049 112.799 346.008 111.869 341.138 108.639C340.038 107.899 339.019 107.069 338.089 106.119C335.749 109.439 332.189 111.829 328.059 112.649C324.099 113.429 320.088 112.699 316.728 110.719C313.528 119.059 306.409 125.409 297.559 127.539C288.639 129.699 279.329 127.229 272.659 121.159C265.289 124.199 256.988 124.559 249.268 122.009C242.858 119.899 237.309 115.949 233.249 110.759C230.299 112.929 226.608 113.969 222.858 113.579C218.938 113.169 215.409 111.239 212.969 108.319C211.289 112.169 208.219 115.299 204.309 117.049C200.039 118.969 195.188 119.029 190.918 117.269C187.288 121.239 182.309 123.829 176.839 124.429C170.859 125.089 164.918 123.329 160.308 119.619C153.768 124.999 144.578 126.279 136.678 122.569C130.388 119.629 126.018 114.039 124.458 107.609C119.308 110.159 112.939 109.649 108.189 105.789C104.139 102.499 102.228 97.5489 102.668 92.7089C101.078 91.5189 99.7885 89.9089 98.9885 87.9889C98.2785 86.2889 97.9985 84.4989 98.1285 82.7389C103.828 94.3089 116.378 100.629 128.868 98.5889C130.588 102.939 133.978 106.469 138.338 108.369C142.018 109.969 146.078 110.269 149.888 109.289C155.268 114.469 163.208 116.199 170.358 113.559C176.168 111.399 180.488 106.699 182.268 101.019C186.838 103.929 192.349 105.149 197.809 104.339C203.339 103.519 208.319 100.709 211.839 96.4989C214.949 100.569 220.108 102.709 225.328 101.879C229.358 101.239 232.809 98.919 234.939 95.659C241.819 103.559 252.559 107.149 262.939 104.789C271.639 102.809 278.748 96.9589 282.458 89.1789C285.448 92.4889 289.698 94.5489 294.328 94.6889C299.228 94.8389 303.839 92.8389 307.069 89.3689C311.229 94.1189 317.559 96.5489 323.969 95.6289C328.349 95.0089 332.258 92.8889 335.138 89.7889C337.418 92.1789 340.389 93.8389 343.689 94.5189C348.329 95.4689 353.138 94.3689 356.898 91.5089C360.668 88.6389 363.008 84.2889 363.328 79.5789C363.648 74.8589 361.918 70.2389 358.578 66.8889C361.298 65.8789 364.278 65.7489 367.118 66.5189C370.738 67.5189 373.798 69.9389 375.618 73.2189C377.448 76.5089 377.869 80.3889 376.789 83.9889Z" fill="#C6E7FF"/>
<path d="M363.329 79.579C363.009 84.289 360.669 88.639 356.899 91.509C353.139 94.369 348.329 95.469 343.689 94.519C340.389 93.839 337.419 92.179 335.139 89.789C332.259 92.889 328.349 95.009 323.969 95.629C317.559 96.549 311.229 94.119 307.069 89.369C303.839 92.839 299.229 94.839 294.329 94.689C289.699 94.549 285.449 92.489 282.459 89.179C278.749 96.959 271.639 102.809 262.939 104.789C252.559 107.149 241.819 103.559 234.939 95.659C232.809 98.919 229.359 101.239 225.329 101.879C220.109 102.709 214.949 100.569 211.839 96.499C208.319 100.709 203.339 103.519 197.809 104.339C192.349 105.149 186.839 103.929 182.269 101.019C180.489 106.699 176.169 111.399 170.359 113.559C163.209 116.199 155.269 114.469 149.889 109.289C146.079 110.269 142.019 109.969 138.339 108.369C133.979 106.469 130.589 102.939 128.869 98.589C116.379 100.629 103.829 94.3089 98.1286 82.7389C95.2086 82.6589 92.4186 81.359 90.4786 79.069C87.9786 76.129 87.3086 72.0389 88.7486 68.4489C90.1886 64.8589 93.4886 62.369 97.3286 61.959C99.4286 61.739 101.489 62.159 103.279 63.109C105.089 60.349 108.019 58.4389 111.379 57.9389C115.479 57.3289 119.579 58.9289 122.179 62.0989C125.919 57.0489 131.679 53.7189 138.099 53.0989C143.509 52.5789 148.819 54.039 153.139 57.049C154.869 53.819 157.969 51.409 161.739 50.649C165.149 49.969 168.579 50.739 171.309 52.609C172.759 49.989 174.999 47.829 177.779 46.479C180.299 45.249 183.069 44.789 185.769 45.069C190.589 32.999 202.759 25.119 216.139 26.079C228.699 26.979 239.079 35.459 242.809 46.9389C246.849 44.2489 251.889 43.259 256.789 44.359C261.429 45.409 265.379 48.219 267.909 52.069C270.059 49.539 272.849 47.569 276.039 46.379C279.399 45.119 282.989 44.809 286.439 45.409C290.959 36.359 300.739 30.6089 311.369 31.6889C321.719 32.7389 329.979 39.959 332.809 49.3689C338.809 48.2789 345.099 49.699 350.119 53.469C354.559 56.809 357.519 61.619 358.579 66.889C361.919 70.239 363.649 74.859 363.329 79.579Z" fill="#FBFBFB"/>
<path d="M177.063 95.7259C178.287 96.9889 179.438 97.7599 180.594 98.2539C181.747 98.7439 182.869 98.9429 183.99 98.9339C185.111 98.9129 186.226 98.6909 187.367 98.1749C188.511 97.6559 189.644 96.8629 190.845 95.5739C191.276 97.3019 190.618 99.2519 189.307 100.65C188.001 102.061 186.026 102.924 184.033 102.932C182.04 102.962 180.049 102.144 178.713 100.762C177.375 99.3939 176.675 97.4619 177.063 95.7259Z" fill="#C6E7FF"/>
<path d="M328.753 86.314C329.977 87.578 331.127 88.348 332.285 88.842C333.438 89.332 334.56 89.531 335.681 89.522C336.802 89.501 337.917 89.279 339.058 88.763C340.202 88.244 341.335 87.451 342.536 86.162C342.967 87.891 342.309 89.84 340.998 91.238C339.692 92.65 337.717 93.512 335.724 93.52C333.731 93.55 331.74 92.732 330.404 91.35C329.066 89.982 328.366 88.051 328.753 86.314Z" fill="#C6E7FF"/>
<path d="M262.028 75.407C264.468 79.465 267.528 82.57 271.063 84.654C274.587 86.74 278.515 87.771 282.443 87.729C286.37 87.677 290.271 86.56 293.747 84.398C297.233 82.237 300.224 79.07 302.582 74.961C302.672 79.73 300.394 84.632 296.658 88.11C292.935 91.617 287.744 93.693 282.509 93.726C277.274 93.8 272.042 91.839 268.244 88.416C264.436 85.021 262.05 80.175 262.028 75.407Z" fill="#C6E7FF"/>
<path d="M223.931 86.4289C225.875 88.7079 227.837 90.2099 229.892 91.1889C231.94 92.1639 234.022 92.5929 236.102 92.5739C238.182 92.5389 240.251 92.0659 242.275 91.0469C244.306 90.0219 246.234 88.4819 248.135 86.1629C248.683 89.1419 247.466 92.4179 245.186 94.7599C242.914 97.1239 239.556 98.5569 236.167 98.5729C232.779 98.6239 229.394 97.2659 227.071 94.9529C224.745 92.6609 223.457 89.4179 223.931 86.4289Z" fill="#C6E7FF"/>
<path d="M142.203 96.341C140.973 98.438 138.884 100.009 136.522 100.893C134.151 101.775 131.478 101.955 128.961 101.406C126.441 100.866 124.083 99.593 122.291 97.806C120.507 96.022 119.259 93.722 119.015 91.302C120.759 92.975 122.439 94.308 124.235 95.333C126.02 96.36 127.883 97.073 129.81 97.498C131.739 97.917 133.731 98.041 135.782 97.847C137.843 97.661 139.925 97.144 142.203 96.341Z" fill="#C6E7FF"/>
<path d="M530.435 137.244C529.155 140.824 526.015 143.424 522.245 144.014C519.995 144.364 517.725 143.964 515.775 142.924C514.915 145.564 512.675 147.644 509.765 148.184C506.145 148.834 502.645 146.884 501.235 143.644C498.745 146.614 495.195 148.614 491.235 149.154C486.455 149.814 481.695 148.254 478.245 145.044C475.025 150.494 469.655 154.544 463.205 155.994C455.385 157.764 447.345 155.394 441.755 149.984C439.035 155.834 433.575 160.174 426.955 161.314C419.155 162.654 411.415 159.314 407.025 152.974C403.845 155.534 399.635 156.694 395.415 155.934C390.275 155.004 386.145 151.404 384.415 146.664C382.645 147.874 380.575 148.654 378.355 148.894C375.685 149.184 373.045 148.644 370.755 147.424C366.115 152.464 359.515 155.484 352.445 155.524C345.275 155.564 338.555 152.564 333.845 147.444C331.145 148.774 327.865 148.644 325.225 146.904C322.505 145.104 321.085 141.984 321.365 138.884C322.725 141.754 325.605 143.584 328.775 143.614C331.115 143.634 333.315 142.664 334.865 141.014C339.725 145.614 346.765 147.254 353.235 145.144C358.505 143.424 362.605 139.484 364.615 134.534C366.415 137.554 369.555 139.674 373.195 140.114C377.265 140.614 381.215 138.954 383.715 135.884C387.025 142.184 394.405 145.394 401.405 143.304C407.665 141.434 411.835 135.844 412.165 129.624C414.415 132.004 417.465 133.554 420.795 133.934C424.455 134.344 428.095 133.314 430.965 131.104C435.035 134.624 440.815 135.614 445.905 133.484C450.335 131.634 453.445 127.754 454.415 123.254C457.035 127.884 461.845 130.984 467.315 131.344C472.655 131.684 477.705 129.354 480.905 125.284C481.975 128.394 484.675 130.694 487.965 131.214C490.465 131.614 492.965 130.914 494.885 129.394C496.915 132.124 500.315 133.544 503.735 133.014C505.545 132.734 507.175 131.924 508.475 130.744C510.175 132.724 512.655 134.044 515.465 134.224C520.975 134.574 525.725 130.414 526.115 124.904C526.955 125.414 527.725 126.054 528.395 126.804C530.935 129.644 531.725 133.654 530.435 137.244Z" fill="#C6E7FF"/>
<path d="M526.115 124.904C525.725 130.414 520.975 134.574 515.465 134.224C512.655 134.044 510.175 132.724 508.475 130.744C507.175 131.924 505.545 132.734 503.735 133.014C500.315 133.544 496.915 132.124 494.885 129.394C492.965 130.914 490.465 131.614 487.965 131.214C484.675 130.694 481.975 128.394 480.905 125.284C477.705 129.354 472.655 131.684 467.315 131.344C461.845 130.984 457.035 127.884 454.415 123.254C453.445 127.754 450.335 131.634 445.905 133.484C440.815 135.614 435.035 134.624 430.965 131.104C428.095 133.314 424.455 134.344 420.795 133.934C417.465 133.554 414.415 132.004 412.165 129.624C411.835 135.844 407.665 141.434 401.405 143.304C394.405 145.394 387.025 142.184 383.715 135.884C381.215 138.954 377.265 140.614 373.195 140.114C369.555 139.674 366.415 137.554 364.615 134.534C362.605 139.484 358.505 143.424 353.235 145.144C346.765 147.254 339.725 145.614 334.865 141.014C333.315 142.664 331.115 143.634 328.775 143.614C325.605 143.584 322.725 141.754 321.365 138.884C320.685 138.634 320.045 138.264 319.465 137.794C317.725 136.364 316.805 134.154 317.035 131.904C317.265 129.654 318.605 127.674 320.605 126.624C322.235 125.764 324.135 125.624 325.845 126.184C326.605 123.464 328.685 121.184 331.545 120.264C333.385 119.664 335.295 119.724 337.015 120.314C339.265 114.564 343.985 109.974 350.025 107.974C355.355 106.214 361.035 106.664 365.895 109.024C366.805 107.024 368.375 105.324 370.435 104.264C372.075 103.424 373.865 103.064 375.615 103.174C376.705 94.1139 383.005 86.2839 392.045 83.4839C399.945 81.0439 408.295 82.9639 414.285 88.0639C417.435 78.5639 425.575 71.2539 435.815 69.4339C445.735 67.6639 455.585 71.4139 461.865 78.7639C468.385 74.8339 476.775 75.2839 482.885 80.0839C488.175 84.2439 490.695 90.8439 489.775 97.2639C492.935 96.3139 496.435 96.8639 499.175 98.9039C502.015 101.024 503.565 104.374 503.435 107.804C508.605 106.044 514.465 106.814 519.085 110.184C523.865 113.674 526.385 119.254 526.115 124.904Z" fill="#FBFBFB"/>
<path d="M353.201 130.378C355.238 131.837 357.102 132.79 358.987 133.344C360.853 133.916 362.696 134.068 364.501 133.925C366.303 133.751 368.088 133.276 369.83 132.399C371.583 131.523 373.263 130.27 375.02 128.482C375.235 131.006 374.108 133.602 372.229 135.514C370.348 137.44 367.687 138.67 364.933 138.905C362.181 139.139 359.347 138.395 357.167 136.814C354.986 135.261 353.433 132.894 353.201 130.378Z" fill="#C6E7FF"/>
<path d="M390.493 120.454C393.482 123.158 396.537 125.098 399.775 126.267C402.984 127.469 406.317 127.867 409.577 127.605C412.832 127.298 416.039 126.32 419 124.595C421.975 122.875 424.663 120.449 427.141 117.269C427.029 121.332 425.004 125.369 421.878 128.333C418.752 131.316 414.493 133.2 410.095 133.58C405.7 133.951 401.177 132.844 397.591 130.43C393.997 128.063 391.315 124.426 390.493 120.454Z" fill="#C6E7FF"/>
<path d="M445.973 119.621C447.397 120.85 448.818 121.717 450.311 122.236C451.79 122.77 453.311 122.941 454.8 122.822C456.286 122.681 457.752 122.245 459.119 121.47C460.494 120.697 461.751 119.603 462.942 118.147C462.933 120.044 462.008 121.944 460.558 123.339C459.108 124.744 457.116 125.633 455.059 125.81C453.003 125.984 450.887 125.458 449.219 124.318C447.549 123.199 446.314 121.484 445.973 119.621Z" fill="#C6E7FF"/>
<path d="M499.565 126.987C500.989 128.216 502.41 129.083 503.903 129.602C505.382 130.136 506.903 130.307 508.392 130.188C509.878 130.047 511.344 129.611 512.711 128.836C514.086 128.063 515.343 126.97 516.534 125.513C516.525 127.41 515.6 129.31 514.15 130.705C512.7 132.11 510.708 132.999 508.651 133.176C506.595 133.35 504.479 132.824 502.811 131.684C501.141 130.565 499.906 128.85 499.565 126.987Z" fill="#C6E7FF"/>
<path d="M86.4349 152.244C85.1549 155.824 82.0149 158.424 78.2449 159.014C75.9949 159.364 73.7249 158.964 71.7749 157.924C70.9149 160.564 68.6749 162.644 65.7649 163.184C62.1449 163.834 58.6449 161.884 57.2349 158.644C54.7449 161.614 51.1949 163.614 47.2349 164.154C42.4549 164.814 37.6949 163.254 34.2449 160.044C31.0249 165.494 25.6549 169.544 19.2049 170.994C11.3849 172.764 3.34488 170.394 -2.24512 164.984C-4.96512 170.834 -10.4251 175.174 -17.0451 176.314C-24.8451 177.654 -32.5851 174.314 -36.9751 167.974C-40.1551 170.534 -44.3651 171.694 -48.5851 170.934C-53.7251 170.004 -57.8551 166.404 -59.5851 161.664C-61.3551 162.874 -63.4251 163.654 -65.6451 163.894C-68.3151 164.184 -70.9551 163.644 -73.2451 162.424C-77.8851 167.464 -84.4851 170.484 -91.5551 170.524C-98.7251 170.564 -105.445 167.564 -110.155 162.444C-112.855 163.774 -116.135 163.644 -118.775 161.904C-121.495 160.104 -122.915 156.984 -122.635 153.884C-121.275 156.754 -118.395 158.584 -115.225 158.614C-112.885 158.634 -110.685 157.664 -109.135 156.014C-104.275 160.614 -97.2351 162.254 -90.7651 160.144C-85.4951 158.424 -81.3951 154.484 -79.3851 149.534C-77.5851 152.554 -74.4451 154.674 -70.8051 155.114C-66.7351 155.614 -62.7851 153.954 -60.2851 150.884C-56.9751 157.184 -49.5951 160.394 -42.5951 158.304C-36.3351 156.434 -32.1651 150.844 -31.8351 144.624C-29.5851 147.004 -26.5351 148.554 -23.2051 148.934C-19.5451 149.344 -15.9051 148.314 -13.0351 146.104C-8.9651 149.624 -3.18513 150.614 1.90487 148.484C6.33487 146.634 9.44489 142.754 10.4149 138.254C13.0349 142.884 17.8449 145.984 23.3149 146.344C28.6549 146.684 33.7049 144.354 36.9049 140.284C37.9749 143.394 40.6749 145.694 43.9649 146.214C46.4649 146.614 48.9649 145.914 50.8849 144.394C52.9149 147.124 56.3149 148.544 59.7349 148.014C61.5449 147.734 63.1749 146.924 64.4749 145.744C66.1749 147.724 68.6549 149.044 71.4649 149.224C76.9749 149.574 81.7249 145.414 82.1149 139.904C82.9549 140.414 83.7249 141.054 84.3949 141.804C86.9349 144.644 87.7249 148.654 86.4349 152.244Z" fill="#C6E7FF"/>
<path d="M82.1149 139.904C81.7249 145.414 76.9749 149.574 71.4649 149.224C68.6549 149.044 66.1748 147.724 64.4748 145.744C63.1748 146.924 61.5448 147.734 59.7348 148.014C56.3148 148.544 52.9148 147.124 50.8848 144.394C48.9648 145.914 46.4649 146.614 43.9649 146.214C40.6749 145.694 37.9748 143.394 36.9048 140.284C33.7048 144.354 28.6548 146.684 23.3148 146.344C17.8448 145.984 13.0348 142.884 10.4148 138.254C9.44484 142.754 6.33483 146.634 1.90483 148.484C-3.18517 150.614 -8.96514 149.624 -13.0351 146.104C-15.9051 148.314 -19.5452 149.344 -23.2052 148.934C-26.5352 148.554 -29.5852 147.004 -31.8352 144.624C-32.1652 150.844 -36.3352 156.434 -42.5952 158.304C-49.5952 160.394 -56.9751 157.184 -60.2851 150.884C-62.7851 153.954 -66.7352 155.614 -70.8052 155.114C-74.4452 154.674 -77.5851 152.554 -79.3851 149.534C-81.3951 154.484 -85.4952 158.424 -90.7652 160.144C-97.2352 162.254 -104.275 160.614 -109.135 156.014C-110.685 157.664 -112.885 158.634 -115.225 158.614C-118.395 158.584 -121.275 156.754 -122.635 153.884C-123.315 153.634 -123.955 153.264 -124.535 152.794C-126.275 151.364 -127.195 149.154 -126.965 146.904C-126.735 144.654 -125.395 142.674 -123.395 141.624C-121.765 140.764 -119.865 140.624 -118.155 141.184C-117.395 138.464 -115.315 136.184 -112.455 135.264C-110.615 134.664 -108.705 134.724 -106.985 135.314C-104.735 129.564 -100.015 124.974 -93.9751 122.974C-88.6451 121.214 -82.9651 121.664 -78.1051 124.024C-77.1951 122.024 -75.6251 120.324 -73.5651 119.264C-71.9251 118.424 -70.1351 118.064 -68.3851 118.174C-67.2951 109.114 -60.9952 101.284 -51.9552 98.4839C-44.0552 96.0439 -35.7052 97.9639 -29.7152 103.064C-26.5652 93.5639 -18.4252 86.2539 -8.18517 84.4339C1.73483 82.6639 11.5849 86.4139 17.8649 93.7639C24.3849 89.8339 32.7748 90.2839 38.8848 95.0839C44.1748 99.2439 46.6949 105.844 45.7749 112.264C48.9349 111.314 52.4349 111.864 55.1749 113.904C58.0149 116.024 59.5649 119.374 59.4349 122.804C64.6049 121.044 70.4649 121.814 75.0849 125.184C79.8649 128.674 82.3849 134.254 82.1149 139.904Z" fill="#FBFBFB"/>
<path d="M1.97266 134.621C3.39666 135.85 4.81764 136.717 6.31064 137.236C7.78964 137.77 9.31065 137.941 10.7997 137.822C12.2857 137.681 13.7517 137.245 15.1187 136.47C16.4937 135.697 17.7507 134.603 18.9417 133.147C18.9327 135.044 18.0076 136.944 16.5576 138.339C15.1076 139.744 13.1157 140.633 11.0587 140.81C9.00265 140.984 6.88666 140.458 5.21866 139.318C3.54866 138.199 2.31366 136.484 1.97266 134.621Z" fill="#C6E7FF"/>
<path d="M55.5654 141.987C56.9894 143.216 58.4104 144.083 59.9034 144.602C61.3824 145.136 62.9034 145.307 64.3924 145.188C65.8784 145.047 67.3444 144.611 68.7114 143.836C70.0864 143.063 71.3434 141.97 72.5344 140.513C72.5254 142.41 71.6004 144.31 70.1504 145.705C68.7004 147.11 66.7084 147.999 64.6514 148.176C62.5954 148.35 60.4794 147.824 58.8114 146.684C57.1414 145.565 55.9064 143.85 55.5654 141.987Z" fill="#C6E7FF"/>
<path d="M517.906 193.111C517.396 197.125 514.761 200.56 511.009 202.091C509.023 202.905 506.885 203.112 504.843 202.753C503.464 205.222 501.036 207.029 498.139 207.595C495.021 208.188 491.904 207.25 489.655 205.209C486.634 209.333 481.917 211.968 476.73 212.313C471.405 212.658 466.26 210.561 462.701 206.685C458.204 214.947 449.665 220.231 440.23 220.562C430.822 220.893 421.98 216.272 416.89 208.436C413.579 209.209 410.075 208.864 406.916 207.374C402.819 205.457 399.798 201.829 398.64 197.525C400.598 201.222 404.461 203.498 408.641 203.415C411.951 203.333 415.014 201.788 417.028 199.263C420.78 203.581 426.546 205.747 432.339 204.809C437.788 203.926 442.34 200.436 444.672 195.621C446.424 197.594 449.045 198.711 451.817 198.477C454.548 198.242 456.921 196.739 458.301 194.532C461.239 198.973 466.729 201.236 472.123 199.912C476.813 198.753 480.316 195.166 481.503 190.752C482.993 192.518 485.241 193.594 487.697 193.566C490.028 193.539 492.166 192.518 493.628 190.862C496.815 195.677 502.801 198.036 508.54 196.463C512.747 195.304 515.989 192.256 517.52 188.435C517.975 189.924 518.113 191.511 517.906 193.111Z" fill="#C6E7FF"/>
<path d="M517.519 188.435C515.988 192.256 512.747 195.304 508.539 196.463C502.801 198.036 496.814 195.677 493.628 190.862C492.165 192.518 490.027 193.539 487.696 193.566C485.241 193.594 482.992 192.518 481.502 190.752C480.316 195.166 476.812 198.753 472.122 199.912C466.728 201.236 461.238 198.974 458.3 194.532C456.921 196.739 454.548 198.242 451.817 198.477C449.044 198.711 446.423 197.594 444.671 195.621C442.34 200.436 437.788 203.926 432.339 204.809C426.545 205.747 420.779 203.581 417.027 199.263C415.013 201.788 411.951 203.333 408.64 203.415C404.46 203.498 400.598 201.222 398.639 197.525C397.508 197.498 396.363 197.208 395.328 196.684C392.97 195.497 391.356 193.194 391.052 190.559C390.749 187.938 391.783 185.331 393.811 183.62C394.473 183.069 395.218 182.627 396.004 182.324C395.604 179.234 396.529 176.033 398.736 173.592C401.053 171.04 404.336 169.784 407.592 170.005C406.902 165.012 407.978 159.88 410.682 155.549C413.992 150.238 419.427 146.61 425.607 145.589C431.773 144.555 438.091 146.237 442.933 150.196C445.209 152.045 447.058 154.307 448.396 156.832C452.575 154.376 457.817 154.238 462.19 156.666C465.459 158.487 467.791 161.48 468.798 164.901C474.177 162.225 480.606 162.156 486.123 164.998C490.551 167.26 493.807 171.067 495.421 175.551C497.711 174.806 500.29 175.054 502.442 176.42C504.015 177.399 505.146 178.847 505.78 180.461C508.512 180.227 511.271 180.986 513.519 182.682C515.464 184.144 516.844 186.172 517.519 188.435Z" fill="#FBFBFB"/>
<path d="M448.812 188.086C450.221 189.911 451.73 191.174 453.36 192.006C454.982 192.836 456.68 193.217 458.377 193.201C460.073 193.174 461.76 192.756 463.362 191.891C464.969 191.024 466.451 189.731 467.826 187.877C468.138 190.185 467.149 192.676 465.37 194.453C463.598 196.245 461.021 197.325 458.422 197.339C455.823 197.377 453.227 196.355 451.416 194.602C449.599 192.864 448.556 190.399 448.812 188.086Z" fill="#C6E7FF"/>
<path d="M488.663 187.908C490.43 189.992 492.357 190.753 494.282 190.751C496.208 190.705 498.11 189.904 499.839 187.785C500.091 189.162 499.523 190.666 498.474 191.751C497.426 192.84 495.876 193.501 494.313 193.51C492.75 193.533 491.188 192.907 490.115 191.84C489.046 190.778 488.445 189.29 488.663 187.908Z" fill="#C6E7FF"/>
<path d="M429.426 195.341C428.633 197.651 426.879 199.605 424.718 200.931C422.551 202.255 419.947 202.941 417.359 202.873C414.771 202.815 412.204 201.999 410.104 200.567C408.013 199.135 406.359 197.092 405.688 194.741C407.739 196.041 409.644 197.017 411.6 197.677C413.545 198.339 415.499 198.682 417.464 198.738C419.428 198.787 421.399 198.542 423.376 197.979C425.364 197.42 427.316 196.539 429.426 195.341Z" fill="#C6E7FF"/>
<path d="M439.216 185.676C435.636 190.016 429.816 191.796 424.416 190.236C420.806 189.186 417.836 186.766 416.066 183.606C413.416 187.336 409.506 190.096 404.936 191.286C399.456 192.706 393.726 191.706 389.126 188.696C387.146 191.946 383.946 194.436 380.036 195.446C375.236 196.686 370.296 195.456 366.686 192.446C363.306 200.226 356.286 206.206 347.466 207.986C335.826 210.346 324.246 204.726 318.736 194.616C315.266 198.576 309.946 200.666 304.476 199.866C297.626 198.856 292.306 193.566 291.146 186.906C286.496 189.586 280.896 190.526 275.426 189.286C267.826 187.566 261.826 181.966 259.486 174.726C256.186 176.116 252.466 176.396 248.906 175.416C243.246 173.866 238.876 169.376 237.466 163.676C236.996 161.746 236.886 159.796 237.116 157.886C238.946 163.246 243.186 167.546 248.666 169.236C254.056 170.906 259.906 169.836 264.446 166.536C268.166 171.586 274.016 174.746 280.406 175.016C286.826 175.286 292.946 172.606 297.086 167.856C299.656 172.396 304.396 175.426 309.766 175.746C314.476 176.016 318.946 174.156 322.066 170.856C326.536 177.476 333.646 182.026 341.746 183.196C350.796 184.506 359.856 181.426 366.206 175.056C369.486 178.636 373.866 181.106 378.746 182.036C384.046 183.046 389.486 182.136 394.126 179.546C397.896 182.126 402.496 183.276 407.096 182.716C411.196 182.226 414.976 180.416 417.906 177.616C421.146 181.856 426.466 183.956 431.416 182.826C436.546 181.666 440.596 177.206 441.516 171.606C443.336 176.336 442.496 181.716 439.216 185.676Z" fill="#C6E7FF"/>
<path d="M441.516 171.606C440.596 177.206 436.546 181.666 431.416 182.826C426.466 183.956 421.146 181.856 417.906 177.616C414.976 180.416 411.196 182.226 407.096 182.716C402.496 183.276 397.896 182.126 394.126 179.546C389.486 182.136 384.046 183.046 378.746 182.036C373.866 181.106 369.486 178.636 366.206 175.056C359.856 181.426 350.796 184.506 341.746 183.196C333.646 182.026 326.536 177.476 322.066 170.856C318.946 174.156 314.476 176.016 309.766 175.746C304.396 175.426 299.656 172.396 297.086 167.856C292.946 172.606 286.826 175.286 280.406 175.016C274.016 174.746 268.166 171.586 264.446 166.536C259.906 169.836 254.056 170.906 248.666 169.236C243.186 167.546 238.946 163.246 237.116 157.886C237.556 154.146 239.296 150.626 242.146 147.976C245.946 144.436 251.186 142.956 256.216 143.906C256.406 141.896 257.156 139.976 258.386 138.346C260.166 135.996 262.816 134.456 265.746 134.086C268.396 133.746 271.056 134.376 273.256 135.866C275.516 131.896 279.536 129.086 284.256 128.476C287.356 128.076 290.396 128.656 293.026 130.026C298.106 116.016 312.036 106.856 327.256 108.116C341.576 109.306 353.236 119.406 356.816 132.806C362.506 131.996 368.376 133.636 372.876 137.496C376.906 140.956 379.336 145.786 379.846 150.886C384.826 147.776 390.996 146.866 396.826 148.636C402.086 150.226 406.376 153.796 408.936 158.416C412.846 155.246 418.116 154.006 423.196 155.346C427.706 156.536 431.346 159.566 433.396 163.506C436.596 164.726 439.316 167.106 440.936 170.286C441.156 170.716 441.346 171.156 441.516 171.606Z" fill="#FBFBFB"/>
<path d="M360.577 171.43C361.6 172.753 362.693 173.669 363.874 174.272C365.05 174.874 366.28 175.15 367.511 175.138C368.741 175.119 369.964 174.816 371.125 174.189C372.29 173.56 373.364 172.623 374.361 171.279C374.587 172.952 373.87 174.758 372.581 176.045C371.296 177.344 369.428 178.127 367.544 178.137C365.66 178.165 363.778 177.424 362.465 176.153C361.148 174.893 360.392 173.107 360.577 171.43Z" fill="#C6E7FF"/>
<path d="M277.272 162.057C276.457 164.347 274.7 166.283 272.545 167.594C270.382 168.906 267.79 169.583 265.215 169.516C262.639 169.459 260.083 168.65 257.989 167.231C255.902 165.813 254.244 163.789 253.551 161.457C255.578 162.773 257.478 163.767 259.434 164.437C261.38 165.111 263.343 165.462 265.316 165.518C267.289 165.568 269.27 165.316 271.248 164.741C273.237 164.171 275.185 163.272 277.272 162.057Z" fill="#C6E7FF"/>
<path d="M305.368 160.948C307.911 164.076 310.635 166.457 313.658 168.106C316.647 169.783 319.88 170.682 323.142 170.919C326.406 171.111 329.725 170.632 332.913 169.378C336.115 168.13 339.14 166.142 342.074 163.376C341.345 167.374 338.73 171.057 335.189 173.511C331.646 175.984 327.15 177.199 322.745 176.905C318.344 176.603 314.043 174.821 310.866 171.89C307.674 169.002 305.576 164.999 305.368 160.948Z" fill="#C6E7FF"/>
<path d="M386.427 172.444C387.614 176.947 390.885 179.18 394.152 179.292C397.42 179.397 400.823 177.395 402.326 172.986C403.277 175.151 402.786 177.989 401.133 180.044C399.509 182.133 396.762 183.411 394.016 183.288C391.269 183.221 388.62 181.753 387.14 179.564C385.631 177.4 385.341 174.539 386.427 172.444Z" fill="#C6E7FF"/>
<path d="M127.21 112.981C127.19 115.381 126.22 117.681 124.5 119.361C123.41 120.421 122.09 121.181 120.66 121.581C118.91 127.311 113.94 131.631 107.81 132.391C102.17 133.091 96.7504 130.641 93.5104 126.251C90.7704 128.751 86.8804 129.661 83.2804 128.551C80.4304 132.181 75.9604 134.321 71.2004 134.141C66.1004 133.961 61.5504 131.141 59.0704 126.841C56.1604 128.531 52.6404 128.871 49.4304 127.721C46.5104 126.681 44.1804 124.531 42.8904 121.781C40.9104 122.331 38.7404 122.091 36.8704 121.001C34.4104 119.561 32.9704 116.931 32.9904 114.181C33.7404 116.741 35.8204 118.701 38.4304 119.281C40.7104 119.801 43.0704 119.191 44.8204 117.691C47.1404 121.311 51.4204 123.241 55.7304 122.521C59.6604 121.861 62.8404 119.131 64.1504 115.471C66.8304 120.681 72.9704 123.331 78.7104 121.461C83.2204 119.991 86.2904 116.131 86.9604 111.741C88.3204 113.881 90.3404 115.571 92.7604 116.531C96.0004 117.811 99.5904 117.651 102.66 116.151C104.31 118.901 107.59 120.311 110.78 119.511C113.3 118.881 115.22 116.991 115.98 114.651C118.27 116.051 121.25 115.981 123.5 114.311C125.28 112.991 126.24 110.941 126.23 108.861C126.87 110.131 127.22 111.541 127.21 112.981Z" fill="#C6E7FF"/>
<path d="M126.231 108.861C126.241 110.941 125.281 112.991 123.501 114.311C121.251 115.981 118.271 116.051 115.981 114.651C115.221 116.991 113.301 118.881 110.781 119.511C107.591 120.311 104.311 118.901 102.661 116.151C99.5908 117.651 96.0008 117.811 92.7608 116.531C90.3408 115.571 88.3208 113.881 86.9608 111.741C86.2908 116.131 83.2208 119.991 78.7108 121.461C72.9708 123.331 66.8308 120.681 64.1508 115.471C62.8408 119.131 59.6608 121.861 55.7308 122.521C51.4208 123.241 47.1408 121.311 44.8208 117.691C43.0708 119.191 40.7108 119.801 38.4308 119.281C35.8208 118.701 33.7408 116.741 32.9908 114.181C32.1808 113.811 31.4508 113.271 30.8308 112.601C29.1408 110.771 28.5708 108.171 29.3308 105.811C30.0908 103.441 32.0608 101.661 34.4908 101.141C36.1608 100.791 37.8608 101.071 39.3008 101.881C39.6408 99.6711 40.8508 97.6111 42.7508 96.2311C45.3308 94.3511 48.6808 94.0811 51.4708 95.3811C52.4808 93.9511 53.9008 92.8011 55.5908 92.1111C58.4808 90.9311 61.7508 91.2611 64.3308 92.9611C67.2308 87.5911 72.8608 84.0711 79.1708 84.0011C85.4308 83.9311 91.1008 87.2611 94.1508 92.4911C96.1908 91.0611 98.7808 90.4911 101.311 90.9911C103.931 91.5211 106.151 93.1211 107.471 95.3411C110.811 94.0711 114.661 94.7611 117.351 97.2911C119.311 99.1311 120.351 101.651 120.361 104.211C121.941 104.591 123.391 105.401 124.561 106.571C125.241 107.251 125.801 108.021 126.231 108.861Z" fill="#FBFBFB"/>
<path d="M95.9319 111.863C96.9539 113.186 98.048 114.102 99.229 114.705C100.405 115.307 101.636 115.583 102.866 115.571C104.096 115.552 105.319 115.249 106.48 114.622C107.645 113.993 108.719 113.056 109.716 111.712C109.942 113.385 109.225 115.19 107.936 116.478C106.651 117.777 104.783 118.56 102.899 118.57C101.015 118.598 99.1329 117.857 97.8199 116.586C96.5029 115.327 95.7469 113.54 95.9319 111.863Z" fill="#C6E7FF"/>
<path d="M77.6155 111.959C76.8005 114.249 75.0435 116.185 72.8885 117.496C70.7255 118.808 68.1335 119.485 65.5585 119.418C62.9825 119.361 60.4265 118.552 58.3325 117.133C56.2445 115.715 54.5875 113.691 53.8945 111.359C55.9215 112.675 57.8215 113.669 59.7775 114.339C61.7235 115.013 63.6865 115.364 65.6595 115.42C67.6325 115.47 69.6135 115.218 71.5915 114.643C73.5795 114.073 75.5285 113.174 77.6155 111.959Z" fill="#C6E7FF"/>
<path d="M286.789 153.989C285.949 156.809 284.248 159.269 281.948 161.039C282.118 164.139 281.558 167.279 280.268 170.179C277.888 175.519 273.279 179.539 267.659 181.169C262.049 182.799 256.008 181.869 251.138 178.639C250.038 177.899 249.019 177.069 248.089 176.119C245.749 179.439 242.189 181.829 238.059 182.649C234.099 183.429 230.088 182.699 226.728 180.719C223.528 189.059 216.409 195.409 207.559 197.539C198.639 199.699 189.329 197.229 182.659 191.159C175.289 194.199 166.988 194.559 159.268 192.009C152.858 189.899 147.309 185.949 143.249 180.759C140.299 182.929 136.608 183.969 132.858 183.579C128.938 183.169 125.409 181.239 122.969 178.319C121.289 182.169 118.219 185.299 114.309 187.049C110.039 188.969 105.188 189.029 100.918 187.269C97.2885 191.239 92.3085 193.829 86.8385 194.429C80.8585 195.089 74.9185 193.329 70.3085 189.619C63.7685 194.999 54.5785 196.279 46.6785 192.569C40.3885 189.629 36.0185 184.039 34.4585 177.609C29.3085 180.159 22.9385 179.649 18.1885 175.789C14.1385 172.499 12.2285 167.549 12.6685 162.709C11.0785 161.519 9.78849 159.909 8.98849 157.989C8.27849 156.289 7.99849 154.499 8.12849 152.739C13.8285 164.309 26.3785 170.629 38.8685 168.589C40.5885 172.939 43.9785 176.469 48.3385 178.369C52.0185 179.969 56.0785 180.269 59.8885 179.289C65.2685 184.469 73.2085 186.199 80.3585 183.559C86.1685 181.399 90.4885 176.699 92.2685 171.019C96.8385 173.929 102.349 175.149 107.809 174.339C113.339 173.519 118.319 170.709 121.839 166.499C124.949 170.569 130.108 172.709 135.328 171.879C139.358 171.239 142.809 168.919 144.939 165.659C151.819 173.559 162.559 177.149 172.939 174.789C181.639 172.809 188.748 166.959 192.458 159.179C195.448 162.489 199.698 164.549 204.328 164.689C209.228 164.839 213.839 162.839 217.069 159.369C221.229 164.119 227.559 166.549 233.969 165.629C238.349 165.009 242.258 162.889 245.138 159.789C247.418 162.179 250.389 163.839 253.689 164.519C258.329 165.469 263.138 164.369 266.898 161.509C270.668 158.639 273.008 154.289 273.328 149.579C273.648 144.859 271.918 140.239 268.578 136.889C271.298 135.879 274.278 135.749 277.118 136.519C280.738 137.519 283.798 139.939 285.618 143.219C287.448 146.509 287.869 150.389 286.789 153.989Z" fill="#C6E7FF"/>
<path d="M273.329 149.579C273.009 154.289 270.669 158.639 266.899 161.509C263.139 164.369 258.329 165.469 253.689 164.519C250.389 163.839 247.419 162.179 245.139 159.789C242.259 162.889 238.349 165.009 233.969 165.629C227.559 166.549 221.229 164.119 217.069 159.369C213.839 162.839 209.229 164.839 204.329 164.689C199.699 164.549 195.449 162.489 192.459 159.179C188.749 166.959 181.639 172.809 172.939 174.789C162.559 177.149 151.819 173.559 144.939 165.659C142.809 168.919 139.359 171.239 135.329 171.879C130.109 172.709 124.949 170.569 121.839 166.499C118.319 170.709 113.339 173.519 107.809 174.339C102.349 175.149 96.8386 173.929 92.2686 171.019C90.4886 176.699 86.1686 181.399 80.3586 183.559C73.2086 186.199 65.2686 184.469 59.8886 179.289C56.0786 180.269 52.0186 179.969 48.3386 178.369C43.9786 176.469 40.5886 172.939 38.8686 168.589C26.3786 170.629 13.8286 164.309 8.12857 152.739C5.20857 152.659 2.41858 151.359 0.47858 149.069C-2.02142 146.129 -2.69142 142.039 -1.25142 138.449C0.188584 134.859 3.48859 132.369 7.32859 131.959C9.42859 131.739 11.4886 132.159 13.2786 133.109C15.0886 130.349 18.0186 128.439 21.3786 127.939C25.4786 127.329 29.5786 128.929 32.1786 132.099C35.9186 127.049 41.6786 123.719 48.0986 123.099C53.5086 122.579 58.8186 124.039 63.1386 127.049C64.8686 123.819 67.9686 121.409 71.7386 120.649C75.1486 119.969 78.5786 120.739 81.3086 122.609C82.7586 119.989 84.9986 117.829 87.7786 116.479C90.2986 115.249 93.0686 114.789 95.7686 115.069C100.589 102.999 112.759 95.119 126.139 96.079C138.699 96.979 149.079 105.459 152.809 116.939C156.849 114.249 161.889 113.259 166.789 114.359C171.429 115.409 175.379 118.219 177.909 122.069C180.059 119.539 182.849 117.569 186.039 116.379C189.399 115.119 192.989 114.809 196.439 115.409C200.959 106.359 210.739 100.609 221.369 101.689C231.719 102.739 239.979 109.959 242.809 119.369C248.809 118.279 255.099 119.699 260.119 123.469C264.559 126.809 267.519 131.619 268.579 136.889C271.919 140.239 273.649 144.859 273.329 149.579Z" fill="#FBFBFB"/>
<path d="M87.0625 165.726C88.2865 166.989 89.4375 167.76 90.5935 168.254C91.7465 168.744 92.8685 168.943 93.9895 168.934C95.1105 168.913 96.2255 168.691 97.3665 168.175C98.5105 167.656 99.6435 166.863 100.845 165.574C101.276 167.302 100.618 169.252 99.3065 170.65C98.0005 172.061 96.0255 172.924 94.0325 172.932C92.0395 172.962 90.0485 172.144 88.7125 170.762C87.3745 169.394 86.6745 167.462 87.0625 165.726Z" fill="#C6E7FF"/>
<path d="M238.753 156.314C239.977 157.578 241.127 158.348 242.285 158.842C243.438 159.332 244.56 159.531 245.681 159.522C246.802 159.501 247.917 159.279 249.058 158.763C250.202 158.244 251.335 157.451 252.536 156.162C252.967 157.891 252.309 159.84 250.998 161.238C249.692 162.65 247.717 163.512 245.724 163.52C243.731 163.55 241.74 162.732 240.404 161.35C239.066 159.982 238.366 158.051 238.753 156.314Z" fill="#C6E7FF"/>
<path d="M172.028 145.407C174.468 149.465 177.528 152.57 181.063 154.654C184.587 156.74 188.515 157.771 192.443 157.729C196.37 157.677 200.271 156.56 203.747 154.398C207.233 152.237 210.224 149.07 212.582 144.961C212.672 149.73 210.394 154.632 206.658 158.11C202.935 161.617 197.744 163.693 192.509 163.726C187.274 163.8 182.042 161.839 178.244 158.416C174.436 155.021 172.05 150.175 172.028 145.407Z" fill="#C6E7FF"/>
<path d="M133.931 156.429C135.875 158.708 137.837 160.21 139.892 161.189C141.94 162.164 144.022 162.593 146.102 162.574C148.182 162.539 150.251 162.066 152.275 161.047C154.306 160.022 156.234 158.482 158.135 156.163C158.683 159.142 157.466 162.418 155.186 164.76C152.914 167.124 149.556 168.557 146.167 168.573C142.779 168.624 139.394 167.266 137.071 164.953C134.745 162.661 133.457 159.418 133.931 156.429Z" fill="#C6E7FF"/>
<path d="M52.2027 166.341C50.9727 168.438 48.8837 170.009 46.5217 170.893C44.1507 171.775 41.4776 171.955 38.9606 171.406C36.4406 170.866 34.0826 169.593 32.2906 167.806C30.5066 166.022 29.2586 163.722 29.0146 161.302C30.7586 162.975 32.4386 164.308 34.2346 165.333C36.0196 166.36 37.8826 167.073 39.8096 167.498C41.7386 167.917 43.7306 168.041 45.7816 167.847C47.8426 167.661 49.9247 167.144 52.2027 166.341Z" fill="#C6E7FF"/>
<path d="M1072.84 175.278C1070.04 179.528 1065.42 182.238 1060.35 182.618C1057.43 182.828 1054.54 182.258 1051.98 181.008C1051.16 182.368 1050.14 183.638 1048.92 184.758C1045 188.358 1039.8 189.788 1034.86 189.018C1034.68 189.808 1034.44 190.588 1034.15 191.358C1032.21 196.498 1028.15 200.568 1023.01 202.528C1017.87 204.488 1012.13 204.148 1007.26 201.598C1003.07 199.398 999.851 195.748 998.201 191.358C984.171 193.888 969.801 186.928 963.271 173.838C958.171 176.608 952.151 177.478 946.321 176.118C938.801 174.348 932.651 169.128 929.671 162.148C928.241 161.858 926.871 161.228 925.691 160.308C923.401 158.518 922.051 155.798 922.001 152.898C921.951 149.998 923.211 147.228 925.431 145.358C927.191 143.888 929.411 143.098 931.671 143.108C928.921 146.098 928.881 150.678 931.581 153.708C932.411 154.638 933.411 155.328 934.501 155.758C935.251 162.138 939.621 167.618 945.841 169.688C951.761 171.648 958.171 170.138 962.581 165.978C965.941 169.498 970.431 171.798 975.321 172.458C979.751 173.058 984.221 172.278 988.151 170.268C988.701 175.088 991.971 179.258 996.671 180.868C1001.12 182.398 1005.98 181.328 1009.37 178.238C1013.98 181.728 1020.03 182.878 1025.69 181.198C1030.96 179.638 1035.17 175.828 1037.3 170.918C1041.34 173.328 1046.3 173.798 1050.77 172.098C1053.43 171.098 1055.71 169.398 1057.42 167.258C1061.23 168.618 1065.5 167.438 1068.08 164.288C1070.75 161.028 1070.99 156.428 1068.69 152.908C1071.44 154.868 1073.54 157.648 1074.66 160.918C1076.32 165.728 1075.64 171.038 1072.84 175.278Z" fill="#C6E7FF"/>
<path d="M1068.08 164.288C1065.5 167.438 1061.23 168.618 1057.42 167.258C1055.71 169.398 1053.43 171.098 1050.77 172.098C1046.3 173.798 1041.34 173.328 1037.3 170.918C1035.17 175.828 1030.96 179.638 1025.69 181.198C1020.03 182.878 1013.98 181.728 1009.37 178.238C1005.98 181.328 1001.12 182.398 996.671 180.868C991.971 179.258 988.701 175.088 988.151 170.268C984.221 172.278 979.751 173.058 975.321 172.458C970.431 171.798 965.941 169.498 962.581 165.978C958.171 170.138 951.761 171.648 945.841 169.688C939.621 167.618 935.251 162.138 934.501 155.758C933.411 155.328 932.411 154.638 931.581 153.708C928.881 150.678 928.921 146.098 931.671 143.108C933.431 138.988 937.031 135.818 941.521 134.678C944.301 133.978 947.161 134.118 949.761 134.998C952.921 128.298 958.961 123.268 966.341 121.438C969.861 120.568 973.441 120.488 976.881 121.138C981.291 108.778 993.311 100.458 1006.77 101.028C1018.42 101.508 1028.44 108.538 1033.11 118.658C1037.17 117.998 1041.38 118.728 1045.03 120.828C1048.79 122.988 1051.6 126.388 1053.05 130.378C1059.24 130.188 1065.15 133.548 1068.08 139.238C1070.33 143.598 1070.45 148.588 1068.69 152.908C1070.99 156.428 1070.75 161.028 1068.08 164.288Z" fill="#FBFBFB"/>
<path d="M1049.92 161.913C1051.15 163.176 1052.3 163.947 1053.45 164.441C1054.61 164.932 1055.73 165.13 1056.85 165.121C1057.97 165.1 1059.08 164.878 1060.23 164.362C1061.37 163.843 1062.5 163.05 1063.7 161.761C1064.13 163.49 1063.48 165.439 1062.17 166.837C1060.86 168.248 1058.88 169.111 1056.89 169.119C1054.9 169.149 1052.91 168.331 1051.57 166.949C1050.23 165.581 1049.53 163.649 1049.92 161.913Z" fill="#C6E7FF"/>
<path d="M976.045 160.26C975.23 162.55 973.473 164.486 971.318 165.797C969.155 167.109 966.563 167.786 963.988 167.719C961.412 167.662 958.856 166.853 956.761 165.434C954.674 164.016 953.016 161.992 952.323 159.66C954.35 160.976 956.25 161.97 958.206 162.64C960.152 163.314 962.115 163.665 964.088 163.721C966.062 163.771 968.042 163.519 970.02 162.944C972.01 162.374 973.958 161.476 976.045 160.26Z" fill="#C6E7FF"/>
<path d="M997.213 169.421C999.092 172.542 1001.49 174.597 1004.1 175.696C1006.7 176.797 1009.45 176.962 1011.97 176.274C1014.48 175.597 1016.79 174.085 1018.47 171.824C1020.18 169.567 1021.23 166.588 1021.29 162.944C1023.66 165.771 1024.19 170.218 1022.65 174.021C1021.92 175.942 1020.65 177.678 1019.09 179.088C1017.5 180.475 1015.58 181.517 1013.53 182.065C1009.41 183.213 1004.81 182.245 1001.6 179.676C998.362 177.157 996.601 173.049 997.213 169.421Z" fill="#C6E7FF"/>
<path d="M80.1515 203.009C78.1415 207.109 73.9915 209.739 69.4215 209.789C66.0715 209.829 62.9115 208.489 60.6415 206.159C58.6315 208.669 55.4115 210.029 52.1015 209.609C49.1515 209.239 46.6116 207.519 45.1516 205.069C40.0216 207.539 34.0116 207.759 28.6216 205.539C28.2116 205.369 27.8115 205.189 27.4215 204.999C23.5815 207.549 19.0515 209.039 14.2715 209.169C5.76155 209.399 -2.21845 205.279 -6.97845 198.359C-9.45845 200.699 -12.9984 201.689 -16.4084 200.819C-20.6984 199.729 -23.7684 195.969 -23.9884 191.549C-24.0584 190.079 -23.8085 188.649 -23.2885 187.349C-22.7185 189.749 -21.0284 191.779 -18.6584 192.749C-15.9984 193.839 -12.9985 193.369 -10.8185 191.629C-8.42845 193.909 -5.30845 195.299 -1.98845 195.529C1.13155 195.749 4.21155 194.939 6.79155 193.249C10.9615 196.389 16.3615 197.529 21.5015 196.289C26.0015 195.199 29.8415 192.399 32.2415 188.559C33.9015 191.659 37.0915 193.699 40.6715 193.849C43.2115 193.959 45.6315 193.089 47.5015 191.519C48.0715 193.829 49.8516 195.739 52.2616 196.369C54.2416 196.889 56.2915 196.459 57.8515 195.299C58.9515 196.759 60.5115 197.829 62.3015 198.319C64.4815 198.919 66.8015 198.609 68.7515 197.459C70.7015 196.319 72.1015 194.439 72.6315 192.239C73.1715 190.049 72.8015 187.729 71.6015 185.819C74.4615 186.369 77.0815 187.959 78.9115 190.369C81.6715 194.009 82.1515 198.899 80.1515 203.009Z" fill="#C6E7FF"/>
<path d="M72.6319 192.239C72.1019 194.439 70.7019 196.319 68.7519 197.459C66.8019 198.609 64.4819 198.919 62.3019 198.319C60.5119 197.829 58.9519 196.759 57.8519 195.299C56.2919 196.459 54.2419 196.889 52.2619 196.369C49.8519 195.739 48.0719 193.829 47.5019 191.519C45.6319 193.089 43.2119 193.959 40.6719 193.849C37.0919 193.699 33.9019 191.659 32.2419 188.559C29.8419 192.399 26.0019 195.199 21.5019 196.289C16.3619 197.529 10.9619 196.389 6.79192 193.249C4.21192 194.939 1.13192 195.749 -1.98808 195.529C-5.30808 195.299 -8.42808 193.909 -10.8181 191.629C-12.9981 193.369 -15.9981 193.839 -18.6581 192.749C-21.0281 191.779 -22.7181 189.749 -23.2881 187.349C-22.2481 184.719 -20.1281 182.579 -17.3481 181.579C-15.4781 180.909 -13.5181 180.819 -11.6781 181.239C-11.4481 180.419 -11.0981 179.629 -10.6281 178.909C-9.37808 176.969 -7.40809 175.599 -5.13809 175.129C-3.10809 174.709 -0.998084 175.039 0.791916 176.029C2.43192 171.709 5.71192 168.109 10.0419 166.099C14.8219 163.869 20.2719 163.879 24.9719 165.969C27.7319 161.789 32.7319 159.379 37.9619 160.139C43.5019 160.939 47.7919 165.079 48.9919 170.289C54.1819 168.719 59.8619 169.619 64.3419 172.849C68.6019 175.909 71.2219 180.689 71.6019 185.819C72.8019 187.729 73.1719 190.049 72.6319 192.239Z" fill="#FBFBFB"/>
<path d="M-0.145201 189.127C0.876799 190.45 1.9708 191.366 3.1518 191.969C4.3278 192.571 5.55779 192.847 6.78879 192.835C8.01879 192.816 9.24179 192.513 10.4028 191.886C11.5678 191.257 12.6418 190.32 13.6388 188.976C13.8658 190.649 13.1478 192.455 11.8588 193.742C10.5738 195.041 8.70579 195.824 6.82179 195.834C4.93779 195.862 3.05578 195.121 1.74278 193.85C0.425784 192.59 -0.330201 190.804 -0.145201 189.127Z" fill="#C6E7FF"/>
<path d="M53.7095 191.112C54.7325 192.435 55.8255 193.351 57.0065 193.954C58.1825 194.556 59.4125 194.832 60.6435 194.82C61.8735 194.801 63.0965 194.498 64.2575 193.871C65.4225 193.242 66.4965 192.305 67.4935 190.961C67.7195 192.634 67.0025 194.44 65.7135 195.727C64.4285 197.026 62.5605 197.809 60.6765 197.819C58.7925 197.847 56.9105 197.106 55.5975 195.835C54.2805 194.575 53.5235 192.788 53.7095 191.112Z" fill="#C6E7FF"/>
<path d="M44.6947 183.034C43.8797 185.324 42.1227 187.26 39.9677 188.571C37.8047 189.883 35.2127 190.56 32.6367 190.493C30.0607 190.436 27.5047 189.627 25.4097 188.208C23.3227 186.79 21.6647 184.766 20.9717 182.434C22.9987 183.75 24.8987 184.744 26.8547 185.414C28.8007 186.088 30.7637 186.439 32.7367 186.495C34.7107 186.545 36.6907 186.293 38.6687 185.718C40.6597 185.148 42.6077 184.249 44.6947 183.034Z" fill="#C6E7FF"/>
</g>
<defs>
<clipPath id="clip0_682_88">
<rect width="1058" height="225" fill="white"/>
</clipPath>
</defs>
</svg>
